<?xml version="1.0" encoding="UTF-8" standalone="no"?>
<!DOCTYPE svg PUBLIC "-//W3C//DTD SVG 1.1//EN" "http://www.w3.org/Graphics/SVG/1.1/DTD/svg11.dtd">
<svg xmlns="http://www.w3.org/2000/svg" version="1.1" viewBox="0 0 320 320">
<path fill="#8d1539" d="M 52.56,0.00 Q 160.19,0.00 267.81,0.00 Q 267.33,0.25 266.00,0.25 Q 159.25,0.28 52.50,0.21 Q 52.53,0.10 52.56,0.00 Z"/>
<path fill="#8d1539" d="M 267.81,0.00 Q 267.94,0.00 268.06,0.00 Q 279.49,0.58 289.19,5.56 Q 317.71,20.23 320.00,52.81 Q 320.00,160.06 320.00,267.31 Q 318.31,295.28 296.19,310.44 Q 283.91,318.85 267.44,320.00 Q 160.19,320.00 52.94,320.00 Q 29.10,318.58 13.81,301.69 Q 1.05,287.58 0.00,267.44 Q 0.00,159.81 0.00,52.19 Q 2.29,22.37 27.72,7.24 Q 39.14,0.45 52.50,0.21 Q 159.25,0.28 266.00,0.25 Q 267.33,0.25 267.81,0.00 ZM 159.0398,296.0967 A 136.11,134.60 90.4 0 0 294.5867,160.9297 A 136.11,134.60 90.4 0 0 160.9402,23.8833 A 136.11,134.60 90.4 0 0 25.3933,159.0503 A 136.11,134.60 90.4 0 0 159.0398,296.0967 Z"/>
<path fill="#dadad9" d="M 159.0398,296.0967 A 136.11,134.60 90.4 0 1 25.3933,159.0503 A 136.11,134.60 90.4 0 1 160.9402,23.8833 A 136.11,134.60 90.4 0 1 294.5867,160.9297 A 136.11,134.60 90.4 0 1 159.0398,296.0967 ZM 132.00,39.04 Q 129.88,38.19 127.92,37.01 Q 127.36,36.67 127.01,36.82 Q 126.47,37.05 126.71,38.00 Q 126.41,39.69 124.74,39.37 Q 124.16,39.27 123.77,39.38 Q 121.99,39.89 120.42,40.87 Q 118.61,42.00 117.19,42.46 Q 113.95,43.51 110.94,45.07 Q 105.27,48.01 104.94,48.17 Q 97.22,51.90 90.21,56.86 Q 89.56,57.31 89.02,57.89 Q 88.50,58.47 87.98,59.05 Q 87.26,59.85 86.13,60.45 Q 83.49,61.85 80.44,64.69 Q 69.89,74.52 65.06,79.81 Q 59.40,86.03 51.06,100.06 Q 49.38,102.89 48.52,105.16 Q 46.77,109.78 46.75,109.83 Q 42.51,119.08 39.47,128.79 Q 38.65,131.43 38.17,134.95 Q 37.75,138.08 37.19,141.18 Q 36.85,143.07 36.89,145.84 Q 36.92,148.22 36.52,150.55 Q 35.70,155.26 35.68,157.04 Q 35.55,168.25 36.69,179.40 Q 36.89,181.41 37.65,185.04 Q 38.24,187.85 38.56,190.71 Q 38.91,193.86 39.96,196.45 Q 41.93,201.31 44.56,208.44 Q 47.21,215.60 51.49,222.81 Q 52.20,224.00 54.67,228.44 Q 56.24,231.28 58.17,233.88 Q 59.09,235.13 61.84,239.45 Q 63.67,242.31 66.56,245.19 Q 74.92,253.50 82.48,259.95 Q 90.48,266.78 98.66,271.65 Q 113.45,280.46 129.96,285.65 Q 132.07,286.32 135.66,286.81 Q 138.56,287.22 141.38,287.97 Q 145.38,289.03 148.27,289.19 Q 154.01,289.51 159.76,289.82 Q 166.43,290.18 172.99,288.94 Q 179.06,287.79 185.25,287.75 Q 187.27,287.74 189.89,286.09 A 1.86,1.74 -60.0 0 1 190.81,285.81 Q 195.64,285.69 201.06,283.31 Q 208.82,279.92 214.22,277.37 Q 224.01,272.75 227.16,271.01 Q 234.03,267.21 240.50,261.75 Q 255.26,249.30 266.06,235.31 Q 269.93,230.30 273.64,221.94 Q 274.58,219.82 275.79,217.83 Q 277.49,215.01 278.00,213.75 Q 282.24,203.29 284.50,195.50 Q 285.36,192.54 286.10,188.32 Q 286.71,184.88 287.72,181.16 Q 289.20,175.68 289.25,172.50 Q 289.32,168.41 289.63,164.33 Q 289.97,159.85 289.55,156.18 Q 288.26,144.96 286.52,133.80 Q 285.49,127.14 281.31,117.44 Q 274.18,100.87 265.97,88.17 Q 261.88,81.84 256.07,75.61 Q 250.36,69.49 244.69,64.31 Q 231.37,52.15 214.62,44.88 Q 213.63,44.46 205.46,40.95 Q 199.34,38.32 196.00,37.75 Q 189.18,36.58 182.48,34.84 Q 177.85,33.64 173.06,33.56 Q 171.55,33.54 168.75,33.25 Q 152.61,31.58 137.21,36.37 Q 135.79,36.81 134.52,37.53 Q 133.25,38.25 132.00,39.04 Z"/>
<path fill="#e5e5e5" d="M 126.71,38.00 L 126.71,48.50 Q 117.57,50.20 111.44,54.19 Q 106.88,57.15 103.54,59.04 Q 97.49,62.48 95.62,63.82 Q 82.69,73.11 72.61,85.44 Q 70.61,87.89 67.77,92.33 Q 65.51,95.88 63.07,99.32 Q 59.62,104.18 57.04,109.52 Q 55.03,113.66 52.44,120.40 Q 44.86,140.14 45.19,159.06 Q 45.44,173.86 46.94,183.06 Q 49.86,201.05 59.94,218.81 Q 60.97,220.63 61.58,222.09 Q 62.46,224.21 63.24,225.30 Q 72.69,238.65 76.06,242.19 Q 81.14,247.50 89.44,254.81 Q 91.74,256.84 93.96,258.22 Q 98.06,260.76 98.71,261.23 Q 104.28,265.24 107.06,266.44 Q 114.22,269.52 121.40,272.52 Q 121.49,272.56 126.01,274.66 Q 130.49,276.75 135.43,277.38 Q 135.88,277.43 136.40,277.24 Q 137.86,276.70 139.36,277.09 A 0.33,0.29 10.9 0 0 139.76,276.85 L 139.79,276.50 Q 145.05,279.43 150.20,282.56 Q 151.08,283.10 151.53,282.89 Q 152.19,282.58 151.79,281.00 Q 153.40,280.75 155.00,280.73 Q 163.25,280.64 171.49,280.10 Q 177.50,279.71 183.50,280.25 Q 185.26,280.41 186.31,281.44 Q 187.76,282.86 188.75,281.29 L 192.74,283.22 A 0.34,0.33 -75.8 0 0 193.22,282.93 L 193.29,280.75 Q 194.92,280.56 197.31,278.81 Q 199.14,277.48 206.19,274.95 Q 213.24,272.42 219.81,268.81 Q 226.10,265.36 239.56,255.31 Q 245.98,250.52 254.36,240.42 Q 254.73,239.97 255.91,238.89 Q 256.75,238.13 257.30,237.16 Q 258.46,235.13 259.01,234.49 Q 264.08,228.68 267.27,221.70 Q 269.72,216.33 269.76,216.24 Q 272.00,211.66 274.16,207.04 Q 277.26,200.39 278.89,193.24 Q 278.94,193.02 279.33,192.38 Q 279.56,191.98 279.75,191.25 Q 281.51,184.39 282.15,178.30 Q 282.59,174.06 282.86,165.21 Q 283.45,145.81 278.45,126.95 Q 276.58,119.88 272.98,113.51 Q 271.27,110.47 269.95,107.25 Q 268.29,103.15 267.05,100.98 Q 259.90,88.45 255.31,82.94 Q 250.55,77.21 240.35,68.01 Q 233.77,62.08 227.38,57.97 Q 219.23,52.73 212.94,50.06 Q 201.27,45.12 192.25,42.75 Q 187.36,41.46 180.46,41.50 Q 177.37,38.21 173.00,39.21 L 168.21,37.00 Q 166.45,36.23 165.50,36.25 Q 151.64,36.55 141.50,38.75 Q 139.25,39.24 138.00,39.28 Q 136.98,39.31 136.58,39.61 Q 135.95,40.10 135.75,40.96 L 132.00,39.04 Q 133.25,38.25 134.52,37.53 Q 135.79,36.81 137.21,36.37 Q 152.61,31.58 168.75,33.25 Q 171.55,33.54 173.06,33.56 Q 177.85,33.64 182.48,34.84 Q 189.18,36.58 196.00,37.75 Q 199.34,38.32 205.46,40.95 Q 213.63,44.46 214.62,44.88 Q 231.37,52.15 244.69,64.31 Q 250.36,69.49 256.07,75.61 Q 261.88,81.84 265.97,88.17 Q 274.18,100.87 281.31,117.44 Q 285.49,127.14 286.52,133.80 Q 288.26,144.96 289.55,156.18 Q 289.97,159.85 289.63,164.33 Q 289.32,168.41 289.25,172.50 Q 289.20,175.68 287.72,181.16 Q 286.71,184.88 286.10,188.32 Q 285.36,192.54 284.50,195.50 Q 282.24,203.29 278.00,213.75 Q 277.49,215.01 275.79,217.83 Q 274.58,219.82 273.64,221.94 Q 269.93,230.30 266.06,235.31 Q 255.26,249.30 240.50,261.75 Q 234.03,267.21 227.16,271.01 Q 224.01,272.75 214.22,277.37 Q 208.82,279.92 201.06,283.31 Q 195.64,285.69 190.81,285.81 A 1.86,1.74 -60.0 0 0 189.89,286.09 Q 187.27,287.74 185.25,287.75 Q 179.06,287.79 172.99,288.94 Q 166.43,290.18 159.76,289.82 Q 154.01,289.51 148.27,289.19 Q 145.38,289.03 141.38,287.97 Q 138.56,287.22 135.66,286.81 Q 132.07,286.32 129.96,285.65 Q 113.45,280.46 98.66,271.65 Q 90.48,266.78 82.48,259.95 Q 74.92,253.50 66.56,245.19 Q 63.67,242.31 61.84,239.45 Q 59.09,235.13 58.17,233.88 Q 56.24,231.28 54.67,228.44 Q 52.20,224.00 51.49,222.81 Q 47.21,215.60 44.56,208.44 Q 41.93,201.31 39.96,196.45 Q 38.91,193.86 38.56,190.71 Q 38.24,187.85 37.65,185.04 Q 36.89,181.41 36.69,179.40 Q 35.55,168.25 35.68,157.04 Q 35.70,155.26 36.52,150.55 Q 36.92,148.22 36.89,145.84 Q 36.85,143.07 37.19,141.18 Q 37.75,138.08 38.17,134.95 Q 38.65,131.43 39.47,128.79 Q 42.51,119.08 46.75,109.83 Q 46.77,109.78 48.52,105.16 Q 49.38,102.89 51.06,100.06 Q 59.40,86.03 65.06,79.81 Q 69.89,74.52 80.44,64.69 Q 83.49,61.85 86.13,60.45 Q 87.26,59.85 87.98,59.05 Q 88.50,58.47 89.02,57.89 Q 89.56,57.31 90.21,56.86 Q 97.22,51.90 104.94,48.17 Q 105.27,48.01 110.94,45.07 Q 113.95,43.51 117.19,42.46 Q 118.61,42.00 120.42,40.87 Q 121.99,39.89 123.77,39.38 Q 124.16,39.27 124.74,39.37 Q 126.41,39.69 126.71,38.00 Z"/>
<path fill="#ededed" d="M 168.21,37.00 L 168.21,45.50 Q 161.05,45.33 153.90,45.47 Q 152.41,45.50 151.28,46.17 Q 150.07,46.88 148.96,47.75 L 135.75,40.96 Q 135.95,40.10 136.58,39.61 Q 136.98,39.31 138.00,39.28 Q 139.25,39.24 141.50,38.75 Q 151.64,36.55 165.50,36.25 Q 166.45,36.23 168.21,37.00 Z"/>
<path fill="#fdbe28" d="M 132.00,39.04 L 135.75,40.96 L 148.96,47.75 L 151.16,49.12 A 1.04,0.88 -77.0 0 1 151.58,49.94 L 151.75,77.96 Q 139.24,79.47 127.50,84.04 Q 126.75,83.47 126.75,83.00 Q 126.78,65.75 126.71,48.50 L 126.71,38.00 Q 126.47,37.05 127.01,36.82 Q 127.36,36.67 127.92,37.01 Q 129.88,38.19 132.00,39.04 Z"/>
<path fill="#8d1539" d="M 173.00,39.21 L 192.57,50.99 A 0.93,0.93 14.5 0 1 193.02,51.75 Q 193.64,67.87 192.96,84.00 Q 192.67,84.88 191.94,84.55 Q 181.56,79.84 170.25,78.32 Q 170.02,78.28 169.30,78.44 Q 168.70,78.57 168.25,77.96 L 168.21,45.50 L 168.21,37.00 L 173.00,39.21 Z"/>
<path fill="#fefefe" d="M 180.46,41.50 Q 182.85,43.58 186.06,43.24 Q 186.87,43.16 187.66,43.35 Q 200.16,46.37 210.79,51.38 Q 211.54,51.74 217.65,54.60 Q 221.45,56.37 225.05,58.48 Q 227.66,60.01 231.47,63.14 Q 234.54,65.66 237.78,67.99 Q 238.72,68.67 239.88,69.87 Q 240.88,70.90 242.03,71.76 Q 244.66,73.73 245.35,74.42 Q 251.30,80.34 257.94,90.06 Q 263.15,97.69 265.99,102.46 Q 267.26,104.60 268.88,109.24 Q 270.17,112.97 272.15,116.39 Q 274.72,120.82 275.47,123.08 Q 276.64,126.63 277.75,131.25 Q 284.77,160.43 278.50,189.00 Q 277.41,193.95 276.52,196.46 Q 275.62,198.99 275.59,199.08 Q 273.53,205.65 270.75,211.96 Q 269.05,215.81 263.81,224.56 Q 258.42,233.57 255.00,237.74 Q 233.81,263.54 202.50,275.25 Q 198.37,276.79 195.53,278.94 Q 194.95,279.39 194.49,279.43 Q 193.89,279.48 193.29,279.25 L 193.21,235.75 Q 193.33,235.08 194.19,234.69 Q 215.55,224.88 228.94,204.94 Q 242.33,184.97 242.14,159.25 Q 241.95,135.28 229.31,115.69 Q 216.31,95.53 194.06,85.20 Q 193.26,84.83 192.96,84.00 Q 193.64,67.87 193.02,51.75 A 0.93,0.93 14.5 0 0 192.57,50.99 L 173.00,39.21 Q 177.37,38.21 180.46,41.50 Z"/>
<path fill="#ededed" d="M 193.29,280.75 L 193.29,279.25 Q 193.89,279.48 194.49,279.43 Q 194.95,279.39 195.53,278.94 Q 198.37,276.79 202.50,275.25 Q 233.81,263.54 255.00,237.74 Q 258.42,233.57 263.81,224.56 Q 269.05,215.81 270.75,211.96 Q 273.53,205.65 275.59,199.08 Q 275.62,198.99 276.52,196.46 Q 277.41,193.95 278.50,189.00 Q 284.77,160.43 277.75,131.25 Q 276.64,126.63 275.47,123.08 Q 274.72,120.82 272.15,116.39 Q 270.17,112.97 268.88,109.24 Q 267.26,104.60 265.99,102.46 Q 263.15,97.69 257.94,90.06 Q 251.30,80.34 245.35,74.42 Q 244.66,73.73 242.03,71.76 Q 240.88,70.90 239.88,69.87 Q 238.72,68.67 237.78,67.99 Q 234.54,65.66 231.47,63.14 Q 227.66,60.01 225.05,58.48 Q 221.45,56.37 217.65,54.60 Q 211.54,51.74 210.79,51.38 Q 200.16,46.37 187.66,43.35 Q 186.87,43.16 186.06,43.24 Q 182.85,43.58 180.46,41.50 Q 187.36,41.46 192.25,42.75 Q 201.27,45.12 212.94,50.06 Q 219.23,52.73 227.38,57.97 Q 233.77,62.08 240.35,68.01 Q 250.55,77.21 255.31,82.94 Q 259.90,88.45 267.05,100.98 Q 268.29,103.15 269.95,107.25 Q 271.27,110.47 272.98,113.51 Q 276.58,119.88 278.45,126.95 Q 283.45,145.81 282.86,165.21 Q 282.59,174.06 282.15,178.30 Q 281.51,184.39 279.75,191.25 Q 279.56,191.98 279.33,192.38 Q 278.94,193.02 278.89,193.24 Q 277.26,200.39 274.16,207.04 Q 272.00,211.66 269.76,216.24 Q 269.72,216.33 267.27,221.70 Q 264.08,228.68 259.01,234.49 Q 258.46,235.13 257.30,237.16 Q 256.75,238.13 255.91,238.89 Q 254.73,239.97 254.36,240.42 Q 245.98,250.52 239.56,255.31 Q 226.10,265.36 219.81,268.81 Q 213.24,272.42 206.19,274.95 Q 199.14,277.48 197.31,278.81 Q 194.92,280.56 193.29,280.75 Z"/>
<path fill="#ffffff" d="M 168.21,45.50 L 168.25,77.96 L 151.75,77.96 L 151.58,49.94 A 1.04,0.88 -77.0 0 0 151.16,49.12 L 148.96,47.75 Q 150.07,46.88 151.28,46.17 Q 152.41,45.50 153.90,45.47 Q 161.05,45.33 168.21,45.50 Z"/>
<path fill="#ffffff" d="M 126.71,48.50 Q 126.78,65.75 126.75,83.00 Q 126.75,83.47 127.50,84.04 Q 86.53,102.45 77.71,146.98 A 0.59,0.59 5.9 0 0 78.29,147.69 L 102.31,147.57 A 0.67,0.66 7.0 0 0 102.94,147.08 Q 108.86,124.85 126.81,112.52 Q 135.04,106.87 144.59,104.27 Q 154.68,101.52 164.44,102.56 Q 195.69,105.88 210.72,133.25 Q 212.56,136.60 213.78,140.02 Q 215.00,143.43 215.93,147.16 A 0.48,0.48 -6.0 0 1 215.45,147.75 Q 203.50,147.25 191.26,147.76 A 1.28,1.28 75.6 0 1 190.05,147.04 Q 182.56,131.75 167.27,128.06 Q 160.18,126.34 153.19,127.69 Q 145.81,129.10 139.94,133.44 Q 130.75,140.22 127.84,150.69 Q 125.09,160.60 128.11,170.27 Q 131.25,180.36 140.44,186.81 Q 149.21,192.98 159.42,192.93 Q 169.07,192.89 177.23,187.85 Q 185.60,182.68 189.89,173.18 A 1.62,1.59 -77.1 0 1 191.36,172.24 L 215.43,172.55 A 0.41,0.41 -82.6 0 1 215.82,173.06 Q 209.95,196.84 188.92,209.36 Q 172.64,219.05 154.75,217.50 Q 132.19,215.55 116.46,198.29 Q 106.63,187.49 103.22,173.14 A 1.16,1.15 83.3 0 0 102.10,172.25 L 78.51,172.25 A 0.83,0.83 83.3 0 0 77.70,173.24 Q 86.60,217.16 126.81,235.69 Q 127.06,235.80 127.04,236.25 L 126.78,267.74 A 2.02,1.80 17.2 0 0 127.77,269.38 L 139.79,276.50 L 139.76,276.85 A 0.33,0.29 10.9 0 1 139.36,277.09 Q 137.86,276.70 136.40,277.24 Q 135.88,277.43 135.43,277.38 Q 130.49,276.75 126.01,274.66 Q 121.49,272.56 121.40,272.52 Q 114.22,269.52 107.06,266.44 Q 104.28,265.24 98.71,261.23 Q 98.06,260.76 93.96,258.22 Q 91.74,256.84 89.44,254.81 Q 81.14,247.50 76.06,242.19 Q 72.69,238.65 63.24,225.30 Q 62.46,224.21 61.58,222.09 Q 60.97,220.63 59.94,218.81 Q 49.86,201.05 46.94,183.06 Q 45.44,173.86 45.19,159.06 Q 44.86,140.14 52.44,120.40 Q 55.03,113.66 57.04,109.52 Q 59.62,104.18 63.07,99.32 Q 65.51,95.88 67.77,92.33 Q 70.61,87.89 72.61,85.44 Q 82.69,73.11 95.62,63.82 Q 97.49,62.48 103.54,59.04 Q 106.88,57.15 111.44,54.19 Q 117.57,50.20 126.71,48.50 Z"/>
<path fill="#424242" d="M 168.25,77.96 Q 168.70,78.57 169.30,78.44 Q 170.02,78.28 170.25,78.32 Q 181.56,79.84 191.94,84.55 Q 192.67,84.88 192.96,84.00 Q 193.26,84.83 194.06,85.20 Q 216.31,95.53 229.31,115.69 Q 241.95,135.28 242.14,159.25 Q 242.33,184.97 228.94,204.94 Q 215.55,224.88 194.19,234.69 Q 193.33,235.08 193.21,235.75 Q 192.44,235.23 191.79,235.64 Q 191.05,236.10 191.01,236.12 Q 180.69,240.47 169.50,241.52 Q 168.82,241.58 168.25,241.96 L 151.50,242.04 Q 138.61,240.54 128.81,236.44 Q 127.63,235.94 127.04,236.25 Q 127.06,235.80 126.81,235.69 Q 86.60,217.16 77.70,173.24 A 0.83,0.83 79.5 0 1 78.51,172.25 L 102.10,172.25 A 1.16,1.15 83.3 0 1 103.22,173.14 Q 106.63,187.49 116.46,198.29 Q 132.19,215.55 154.75,217.50 Q 172.64,219.05 188.92,209.36 Q 209.95,196.84 215.82,173.06 A 0.41,0.41 -82.6 0 0 215.43,172.55 L 191.36,172.24 A 1.62,1.59 -77.1 0 0 189.89,173.18 Q 185.60,182.68 177.23,187.85 Q 169.07,192.89 159.42,192.93 Q 149.21,192.98 140.44,186.81 Q 131.25,180.36 128.11,170.27 Q 125.09,160.60 127.84,150.69 Q 130.75,140.22 139.94,133.44 Q 145.81,129.10 153.19,127.69 Q 160.18,126.34 167.27,128.06 Q 182.56,131.75 190.05,147.04 A 1.28,1.28 75.6 0 0 191.26,147.76 Q 203.50,147.25 215.45,147.75 A 0.48,0.48 -6.0 0 0 215.93,147.16 Q 215.00,143.43 213.78,140.02 Q 212.56,136.60 210.72,133.25 Q 195.69,105.88 164.44,102.56 Q 154.68,101.52 144.59,104.27 Q 135.04,106.87 126.81,112.52 Q 108.86,124.85 102.94,147.08 A 0.67,0.66 7.0 0 1 102.31,147.57 L 78.29,147.69 A 0.59,0.59 5.9 0 1 77.71,146.98 Q 86.53,102.45 127.50,84.04 Q 139.24,79.47 151.75,77.96 L 168.25,77.96 Z"/>
<path fill="#00524c" d="M 193.21,235.75 L 193.29,279.25 L 193.29,280.75 L 193.22,282.93 A 0.34,0.33 -75.8 0 1 192.74,283.22 L 188.75,281.29 L 172.25,272.79 L 168.98,270.85 A 1.62,1.47 -76.1 0 1 168.25,269.50 L 168.25,241.96 Q 168.82,241.58 169.50,241.52 Q 180.69,240.47 191.01,236.12 Q 191.05,236.10 191.79,235.64 Q 192.44,235.23 193.21,235.75 Z"/>
<path fill="#e87402" d="M 151.50,242.04 L 151.79,277.50 L 151.79,281.00 Q 152.19,282.58 151.53,282.89 Q 151.08,283.10 150.20,282.56 Q 145.05,279.43 139.79,276.50 L 127.77,269.38 A 2.02,1.80 17.2 0 1 126.78,267.74 L 127.04,236.25 Q 127.63,235.94 128.81,236.44 Q 138.61,240.54 151.50,242.04 Z"/>
<path fill="#ffffff" d="M 151.50,242.04 L 168.25,241.96 L 168.25,269.50 A 1.62,1.47 -76.1 0 0 168.98,270.85 L 172.25,272.79 Q 172.63,273.89 173.56,274.50 A 0.51,0.44 35.1 0 1 173.73,275.17 Q 172.59,276.71 170.00,276.50 Q 162.40,275.89 151.79,277.50 L 151.50,242.04 Z"/>
<path fill="#f8f8f8" d="M 172.25,272.79 L 188.75,281.29 Q 187.76,282.86 186.31,281.44 Q 185.26,280.41 183.50,280.25 Q 177.50,279.71 171.49,280.10 Q 163.25,280.64 155.00,280.73 Q 153.40,280.75 151.79,281.00 L 151.79,277.50 Q 162.40,275.89 170.00,276.50 Q 172.59,276.71 173.73,275.17 A 0.51,0.44 35.1 0 0 173.56,274.50 Q 172.63,273.89 172.25,272.79 Z"/>
</svg>
