<svg width="23" height="32" viewBox="0 0 23 32" fill="none" xmlns="http://www.w3.org/2000/svg">
<g clip-path="url(#clip0_158_615)">
<path d="M22.5032 12.1627C22.5032 12.1627 22.5032 12.1627 22.5032 12.056L22.4232 11.856C22.3953 11.8136 22.3641 11.7734 22.3298 11.736C22.2942 11.6796 22.254 11.6261 22.2098 11.576L22.0898 11.4827L21.8765 11.376L11.8765 5.20267C11.6646 5.07023 11.4197 5 11.1698 5C10.9199 5 10.6751 5.07023 10.4632 5.20267L0.543162 11.376L0.423162 11.4827L0.303162 11.576C0.258964 11.6261 0.218836 11.6796 0.183162 11.736C0.148884 11.7734 0.117673 11.8136 0.0898288 11.856L0.0098286 12.056C0.0098286 12.056 0.0098286 12.056 0.0098286 12.1627C-0.0032762 12.2779 -0.0032762 12.3942 0.0098286 12.5093V24.1627C0.00937517 24.3893 0.0666768 24.6122 0.176324 24.8105C0.28597 25.0088 0.444345 25.1759 0.636496 25.296L10.6365 31.4693C10.698 31.5073 10.7657 31.5344 10.8365 31.5493C10.8365 31.5493 10.9032 31.5493 10.9432 31.5493C11.1687 31.6209 11.4109 31.6209 11.6365 31.5493C11.6365 31.5493 11.7032 31.5493 11.7432 31.5493C11.8139 31.5344 11.8816 31.5073 11.9432 31.4693L21.8765 25.296C22.0686 25.1759 22.227 25.0088 22.3367 24.8105C22.4463 24.6122 22.5036 24.3893 22.5032 24.1627V12.5093C22.5163 12.3942 22.5163 12.2779 22.5032 12.1627ZM9.8765 27.9493L2.54316 23.416V14.9093L9.8765 19.4293V27.9493ZM11.2098 17.1227L3.74316 12.5093L11.2098 7.90934L18.6765 12.5093L11.2098 17.1227ZM19.8765 23.416L12.5432 27.9493V19.4293L19.8765 14.9093V23.416Z" fill="#E2E2E2"/>
</g>
<defs>
<clipPath id="clip0_158_615">
<rect width="22.513" height="31.603" fill="white"/>
</clipPath>
</defs>
</svg>
