<svg width="45" height="44" viewBox="0 0 45 44" fill="none" xmlns="http://www.w3.org/2000/svg">
    <path
        d="M22.0058 43.9946C34.1592 43.9946 44.0115 34.146 44.0115 21.9973C44.0115 9.84852 34.1592 0 22.0058 0C9.85231 0 0 9.84852 0 21.9973C0 34.146 9.85231 43.9946 22.0058 43.9946Z"
        fill="url(#paint0_radial_122_208)" />
    <mask id="mask0_122_208" style="mask-type:luminance" maskUnits="userSpaceOnUse" x="0" y="0"
        width="45" height="44">
        <path
            d="M22.0058 43.9946C34.1592 43.9946 44.0115 34.146 44.0115 21.9973C44.0115 9.84852 34.1592 0 22.0058 0C9.85231 0 0 9.84852 0 21.9973C0 34.146 9.85231 43.9946 22.0058 43.9946Z"
            fill="white" />
    </mask>
    <g mask="url(#mask0_122_208)">
        <path
            d="M28.9524 13.0877C27.7856 12.9519 27.0108 13.0039 27.0108 13.0039C27.0108 13.0039 26.8703 13.0381 26.6187 13.1273C25.7834 12.5158 24.768 12.1309 23.6571 12.0649C23.5453 12.0587 23.4342 12.0549 23.3232 12.0549C22.1533 12.0549 21.0564 12.418 20.1512 13.0412C20.0976 13.0342 20.0456 13.028 19.9912 13.0218C13.5182 12.3094 7.44269 14.9068 3.4547 19.4574C3.43297 19.4822 3.41045 19.5086 3.38716 19.5358C3.35922 19.5684 3.33049 19.6017 3.30177 19.6374C3.294 19.646 3.28702 19.6553 3.28003 19.6638C3.25752 19.691 3.235 19.7189 3.21171 19.7484H3.19852C2.95786 19.7476 2.64732 19.774 2.36397 19.878C1.48283 20.2 0.881958 20.8604 0.881958 20.8604C1.79647 15.6634 4.83812 11.2563 9.03339 8.50065L7.48617 8.2399C10.9199 6.22611 15.2844 5.42603 19.5627 5.42603C29.235 5.42603 33.0188 11.4123 28.9539 13.087L28.9524 13.0877Z"
            fill="#BAE4F1" />
        <path
            d="M38.4973 36.5695C38.4911 36.5773 38.4841 36.5842 38.4771 36.592C38.4678 36.6029 38.4577 36.6145 38.4476 36.6261C38.3979 36.6812 38.3483 36.7363 38.2986 36.7907C38.2947 36.7945 38.2908 36.7992 38.2877 36.8031C38.2365 36.859 38.1852 36.9148 38.1332 36.9699C38.1286 36.9754 38.1239 36.98 38.1192 36.9855C38.0913 37.0149 38.0634 37.0452 38.0354 37.0747C38.0284 37.0825 38.0214 37.0902 38.0137 37.098C37.9787 37.136 37.943 37.1732 37.9073 37.2097C37.9027 37.2144 37.898 37.2198 37.8933 37.2245L37.8887 37.2291C37.8483 37.2718 37.8079 37.3137 37.766 37.3556C37.7629 37.3595 37.759 37.3634 37.7551 37.3673C37.7505 37.3719 37.7458 37.3773 37.7404 37.382C37.6962 37.427 37.6527 37.472 37.6076 37.5163C37.5634 37.5613 37.5184 37.6055 37.4733 37.6497C37.4283 37.6947 37.3833 37.7382 37.3383 37.7824C37.2932 37.8267 37.2482 37.8701 37.2024 37.9136L37.1908 37.9252C37.1721 37.9431 37.1527 37.9617 37.1333 37.9788C37.0891 38.0207 37.0448 38.0626 36.9998 38.1045C36.9912 38.1122 36.9835 38.12 36.9749 38.127C36.9222 38.1767 36.8686 38.2255 36.815 38.2744C36.8119 38.2775 36.808 38.2806 36.8049 38.2837C36.7498 38.3334 36.6939 38.3839 36.638 38.4335C36.6225 38.4483 36.6062 38.4622 36.5899 38.477C36.5782 38.4871 36.5666 38.4979 36.5542 38.508C36.5123 38.5453 36.4703 38.5817 36.4276 38.6182C36.3686 38.6694 36.3096 38.7206 36.2499 38.7711C36.2367 38.7827 36.2235 38.7936 36.2095 38.8052C36.159 38.8479 36.1086 38.8906 36.0573 38.9325C36.0418 38.9457 36.0255 38.9589 36.01 38.9721C35.9867 38.9907 35.9642 39.0101 35.9409 39.028C35.8749 39.0831 35.8081 39.1374 35.7406 39.1901C35.708 39.2165 35.6754 39.2429 35.642 39.2685C35.5737 39.3236 35.5046 39.3772 35.4347 39.4299C35.4192 39.4431 35.4029 39.4555 35.3866 39.468C35.3315 39.5106 35.2771 39.5525 35.222 39.5929C35.1552 39.6433 35.0885 39.693 35.0209 39.7419C34.993 39.7629 34.965 39.7838 34.9363 39.804C34.9208 39.8156 34.9053 39.8273 34.889 39.8381C34.8447 39.8707 34.8005 39.9018 34.7562 39.9336C34.7531 39.9359 34.7508 39.9375 34.7477 39.9398C34.6879 39.9825 34.6273 40.0251 34.566 40.0671C34.5186 40.1004 34.4713 40.133 34.4247 40.1648C34.403 40.1804 34.3805 40.1951 34.3587 40.2098C34.3052 40.2463 34.2516 40.2828 34.1972 40.3185C34.1732 40.3348 34.1483 40.3511 34.1243 40.3674C34.0979 40.3852 34.0707 40.4031 34.0435 40.4201C34.0094 40.4427 33.9752 40.4644 33.9411 40.4869C33.9348 40.4908 33.9279 40.4954 33.9217 40.4993C33.8766 40.5288 33.8316 40.5575 33.7858 40.5854L33.7229 40.625C33.6888 40.6475 33.6538 40.67 33.6189 40.691C33.6127 40.6949 33.6057 40.6995 33.5995 40.7026C33.4892 40.7709 33.3782 40.8384 33.2672 40.9052C33.2486 40.916 33.2307 40.9269 33.2121 40.9378C33.1119 40.9967 33.011 41.0557 32.9093 41.1139C32.879 41.1318 32.848 41.1488 32.8169 41.1667C32.7564 41.2008 32.6958 41.235 32.6345 41.2683C32.6337 41.2691 32.6329 41.2699 32.6314 41.2699C32.5809 41.2986 32.5297 41.3265 32.4777 41.3537C32.4629 41.3622 32.4474 41.3708 32.4327 41.3785C32.3651 41.415 32.2984 41.4507 32.2316 41.4856C32.0484 41.5819 31.8644 41.675 31.6781 41.7666C31.6618 41.7743 31.6462 41.7821 31.6299 41.7898C31.6097 41.7999 31.5896 41.8092 31.5694 41.8193C31.4894 41.8581 31.4079 41.8962 31.3272 41.9342C31.3023 41.9466 31.2767 41.9582 31.2519 41.9699C31.1851 42.0001 31.1183 42.0304 31.0516 42.0607C30.9848 42.0909 30.9173 42.1212 30.8497 42.1507C30.8055 42.1701 30.7604 42.1895 30.7162 42.2089L30.6463 42.2392C30.5842 42.2655 30.5221 42.2911 30.4592 42.3175C30.4484 42.3222 30.4367 42.3268 30.4251 42.3323C30.363 42.3571 30.3009 42.3835 30.238 42.4083C30.1697 42.4355 30.1006 42.4634 30.0323 42.4906C29.9438 42.5247 29.8545 42.5589 29.7652 42.593C29.7093 42.614 29.6526 42.6349 29.596 42.6551C29.5339 42.6784 29.471 42.7009 29.4089 42.7234C29.339 42.7482 29.2683 42.7731 29.1985 42.7971C28.9927 42.8677 28.7847 42.936 28.5766 43.0012C28.5363 43.0144 28.4959 43.0268 28.4548 43.0392C28.4198 43.0501 28.3849 43.0602 28.35 43.0711C28.2785 43.092 28.2071 43.1137 28.1349 43.1339C28.1326 43.1339 28.1303 43.1362 28.1279 43.1362C28.0588 43.1564 27.989 43.1758 27.9191 43.1952C27.7832 43.2332 27.6466 43.2697 27.5092 43.3054C27.4393 43.3233 27.3687 43.3411 27.2988 43.3582C27.2142 43.3791 27.1296 43.4001 27.0442 43.4195C26.9891 43.4327 26.9339 43.4459 26.878 43.4583C26.8338 43.4684 26.7888 43.4785 26.7445 43.4878C26.5885 43.5219 26.4324 43.5545 26.2756 43.5856C26.087 43.622 25.8983 43.657 25.7081 43.6888C25.6522 43.6981 25.5963 43.7074 25.5404 43.7167C25.521 43.7198 25.5024 43.7229 25.483 43.726C25.431 43.7338 25.379 43.7423 25.3269 43.7501C25.1996 43.7695 25.0723 43.7873 24.9442 43.8044C24.8798 43.8129 24.8161 43.8215 24.7517 43.8292C24.688 43.837 24.6236 43.8448 24.5592 43.8525C24.237 43.889 23.9132 43.9193 23.588 43.9425C23.5228 43.9472 23.4575 43.9518 23.3916 43.9557C23.2611 43.9635 23.1299 43.9705 22.9987 43.9767C22.9335 43.9798 22.8675 43.9821 22.8015 43.9844C22.7356 43.9868 22.6696 43.9891 22.6044 43.9907C22.4064 43.9961 22.2077 43.9984 22.0089 43.9984C21.8102 43.9984 21.6122 43.9961 21.4143 43.9907C21.3467 43.9891 21.2784 43.9868 21.2109 43.9844C21.0781 43.9798 20.9461 43.9736 20.8141 43.9666C20.7482 43.9627 20.6822 43.9588 20.6162 43.955C20.551 43.9511 20.485 43.9464 20.4198 43.9418C20.3538 43.9371 20.2886 43.9324 20.2226 43.927C20.0262 43.9115 19.8305 43.8929 19.6357 43.8719C19.506 43.858 19.3764 43.8432 19.2475 43.8269C19.1978 43.8207 19.1489 43.8145 19.1 43.8083C19.076 43.8044 19.0519 43.8013 19.027 43.7982C18.9719 43.7904 18.916 43.7827 18.8609 43.7749C18.7522 43.7594 18.6443 43.7431 18.5364 43.726C18.3245 43.6927 18.1141 43.6562 17.9037 43.6166C17.7772 43.5925 17.6506 43.5677 17.5249 43.5413C17.3991 43.5149 17.2733 43.4878 17.1483 43.4599C17.0901 43.4467 17.0327 43.4335 16.9752 43.4203C16.9597 43.4164 16.9449 43.4133 16.9294 43.4094C16.8153 43.3822 16.7019 43.3543 16.5886 43.3264C16.5265 43.3101 16.4644 43.2946 16.4031 43.2783C16.2796 43.2457 16.1562 43.2123 16.0335 43.1782C15.9722 43.1603 15.9116 43.1432 15.8503 43.1254C15.7284 43.0897 15.6066 43.0532 15.4854 43.016C15.3799 42.9834 15.2743 42.9492 15.1687 42.9151C15.0957 42.891 15.0228 42.867 14.9506 42.8421C14.8799 42.8181 14.81 42.794 14.7394 42.7692C14.498 42.6854 14.2596 42.5969 14.0228 42.5038C13.8893 42.4518 13.7566 42.3982 13.6238 42.3439C13.5571 42.3168 13.4911 42.2888 13.4251 42.2609C13.2279 42.1779 13.0315 42.0909 12.8374 42.0017C12.7885 41.9792 12.7396 41.9567 12.6907 41.9334C12.6418 41.9109 12.5936 41.8884 12.5455 41.8651C12.4865 41.8372 12.4275 41.8085 12.3693 41.7797C12.3041 41.7479 12.2396 41.7161 12.1752 41.6835C11.9796 41.5865 11.7855 41.4856 11.5929 41.3816C11.5456 41.356 11.4975 41.3297 11.4493 41.3033C11.3895 41.2707 11.3298 41.2381 11.27 41.2047C11.1551 41.1403 11.041 41.0751 10.9276 41.0084C10.8446 40.9595 10.7615 40.9106 10.6792 40.8609C10.659 40.8493 10.6388 40.8369 10.6187 40.8245C10.5534 40.7857 10.4882 40.7453 10.4238 40.705C10.4044 40.6933 10.385 40.6809 10.3656 40.6685C10.3532 40.4093 10.2608 38.1472 10.3275 37.025C10.7297 30.2449 13.7457 24.2407 18.3392 19.933C18.9005 19.7258 19.6008 19.5334 20.3949 19.365C20.4027 19.3634 20.4112 19.3619 20.419 19.3603C20.4361 19.3564 20.4524 19.3533 20.4687 19.3494C20.485 19.3463 20.5013 19.3425 20.5184 19.3394C19.9214 19.85 19.3865 20.4134 18.9191 21.0257C17.2539 23.2086 16.4737 25.9984 16.9286 29.1786C16.9511 29.3346 16.9783 29.489 17.0078 29.6435C18.4363 37.0918 28.1978 42.2291 37.1644 37.3719C37.6131 37.129 38.061 36.8621 38.5043 36.5687L38.4973 36.5695Z"
            fill="#6BB9E7" />
        <path
            d="M35.8267 21.4416C35.8267 18.71 29.1736 18.2754 23.7518 18.8458V18.8473H23.751C22.588 18.9692 21.4833 19.136 20.5121 19.3393C20.4951 19.3432 20.4788 19.3463 20.4617 19.3502C20.4454 19.3541 20.4291 19.3572 20.412 19.3611C20.4042 19.3626 20.3957 19.3642 20.3879 19.3657C19.5945 19.5341 18.8943 19.7266 18.3322 19.9338C18.6567 19.6296 18.989 19.3331 19.329 19.0452C19.3911 18.9932 19.4532 18.9412 19.5153 18.8892C19.5215 18.8853 19.5285 18.8799 19.5347 18.8753C19.5914 18.8271 19.6496 18.779 19.7086 18.7317C19.7156 18.727 19.7234 18.7201 19.7288 18.7138C19.7894 18.6657 19.8507 18.6176 19.9097 18.5695C19.9151 18.5656 19.919 18.5633 19.9229 18.5594C20.1853 18.3499 20.4524 18.1473 20.7225 17.9487C20.728 17.9448 20.7342 17.9409 20.7396 17.937C20.7986 17.8928 20.8615 17.8493 20.9205 17.8051C20.9306 17.7989 20.9407 17.7911 20.95 17.7834C21.0082 17.743 21.0664 17.7011 21.1247 17.6608C21.1425 17.6468 21.1619 17.6375 21.1798 17.6189C21.2287 17.5847 21.2768 17.5529 21.3265 17.5188C21.3366 17.5133 21.3482 17.5048 21.3583 17.4986C21.5648 17.355 21.7744 17.2169 21.9848 17.0811C21.9895 17.0772 21.9949 17.0749 21.9988 17.0725C22.0632 17.0306 22.1253 16.9911 22.189 16.9507C22.203 16.9422 22.2154 16.9344 22.2294 16.9251C22.2853 16.891 22.3412 16.8553 22.3955 16.8211C22.4134 16.811 22.4297 16.8009 22.4467 16.7908C22.4995 16.7583 22.5539 16.7249 22.6074 16.6923C22.6237 16.6822 22.6416 16.6729 22.6571 16.662C22.7138 16.6287 22.7712 16.5945 22.8279 16.5604C22.8411 16.5526 22.8551 16.5448 22.8675 16.5371C22.9374 16.496 23.0073 16.4548 23.0779 16.416V16.4145C23.2215 16.3322 23.3659 16.2507 23.5103 16.1708C23.5282 16.1607 23.5445 16.1522 23.5623 16.1429C23.6159 16.1142 23.6687 16.0847 23.7238 16.0559C23.7448 16.0443 23.7681 16.0319 23.789 16.0203C23.7929 16.0179 23.7968 16.0164 23.7999 16.014C23.8457 15.99 23.8915 15.9659 23.9373 15.9419C23.9614 15.9287 23.9854 15.9163 24.0095 15.9038C24.0576 15.8782 24.1073 15.8526 24.1554 15.8278C24.1795 15.8162 24.2036 15.8037 24.2261 15.7921C24.2765 15.7665 24.3262 15.7401 24.3767 15.7145C24.4 15.7044 24.4217 15.6928 24.4442 15.6819C24.5102 15.6485 24.5778 15.6159 24.6437 15.5826C24.65 15.5802 24.6562 15.5779 24.6608 15.5756C24.7346 15.5399 24.8083 15.5042 24.8829 15.4685C24.9007 15.46 24.9186 15.4522 24.9364 15.4437C24.9908 15.4181 25.0451 15.3924 25.101 15.3676C25.1266 15.3544 25.153 15.3436 25.1786 15.3304C25.2268 15.3086 25.2749 15.2877 25.3207 15.266C25.3494 15.2535 25.3789 15.2403 25.4084 15.2279C25.4527 15.2062 25.4985 15.1876 25.5435 15.1682C25.573 15.1542 25.6025 15.1418 25.6328 15.1286C25.677 15.1084 25.7252 15.0882 25.771 15.0696C25.7989 15.0564 25.8269 15.044 25.8556 15.0324C25.9068 15.0114 25.9573 14.9905 26.007 14.9695C26.031 14.9594 26.0551 14.9493 26.08 14.9385C26.1537 14.9082 26.229 14.8779 26.3035 14.8477C25.743 14.5737 25.1662 14.3262 24.5731 14.1073C25.4698 13.5711 26.1972 13.2754 26.6164 13.1288C26.8679 13.0395 27.0084 13.0054 27.0084 13.0054C27.0084 13.0054 27.7824 12.9534 28.95 13.0892C30.7992 13.3018 33.6352 13.984 35.9471 16.0816C37.6612 17.6383 36.8965 20.2442 35.8236 21.4431L35.8267 21.4416Z"
            fill="#FDBB11" />
        <path
            d="M26.3058 14.847C26.2313 14.8773 26.156 14.9075 26.0823 14.9378C26.0574 14.9487 26.0334 14.9587 26.0093 14.9688C25.9596 14.9898 25.9091 15.0107 25.8579 15.0317C25.8292 15.0433 25.8012 15.0557 25.7733 15.0689C25.7275 15.0876 25.6794 15.1077 25.6351 15.1279C25.6048 15.1411 25.5753 15.1535 25.5458 15.1675C25.5008 15.1869 25.455 15.2055 25.4107 15.2273C25.3812 15.2397 25.3517 15.2529 25.323 15.2653C25.2772 15.287 25.2291 15.308 25.1809 15.3297C25.1553 15.3429 25.1289 15.3537 25.1033 15.3669C25.0474 15.3918 24.9931 15.4174 24.9387 15.443C24.9209 15.4515 24.903 15.4593 24.8852 15.4678C24.8106 15.5035 24.7369 15.5392 24.6631 15.5749C24.6585 15.5772 24.6523 15.5796 24.6461 15.5819C24.5801 15.6153 24.5125 15.6479 24.4465 15.6812C24.424 15.6921 24.4023 15.7037 24.379 15.7138C24.3285 15.7394 24.2789 15.7658 24.2284 15.7914C24.2059 15.8031 24.1818 15.8155 24.1578 15.8271C24.1096 15.852 24.0599 15.8776 24.0118 15.9032C23.9877 15.9156 23.9637 15.928 23.9396 15.9412C23.8938 15.9653 23.848 15.9893 23.8022 16.0134C23.8022 16.0134 23.7952 16.0172 23.7913 16.0196C23.7704 16.0312 23.7471 16.0436 23.7261 16.0553C23.671 16.084 23.6182 16.1135 23.5646 16.1422C23.5468 16.1515 23.5305 16.16 23.5126 16.1701C23.3682 16.2501 23.2238 16.3315 23.0802 16.4138V16.4153C23.0096 16.4542 22.9397 16.4953 22.8698 16.5364C22.8574 16.5442 22.8434 16.5519 22.8302 16.5597C22.7736 16.5938 22.7161 16.628 22.6594 16.6614C22.6439 16.6722 22.6261 16.6815 22.6098 16.6916C22.5562 16.7242 22.5018 16.7576 22.4491 16.7902C22.432 16.8003 22.4157 16.8103 22.3978 16.8204C22.3435 16.8546 22.2876 16.8903 22.2317 16.9244C22.2177 16.9337 22.2053 16.9415 22.1913 16.95C22.1277 16.9904 22.0656 17.03 22.0011 17.0719C21.9972 17.0742 21.9918 17.0765 21.9871 17.0804C21.7768 17.2162 21.5672 17.3543 21.3606 17.4979C21.3506 17.5041 21.3389 17.5127 21.3288 17.5181C21.2791 17.5522 21.231 17.584 21.1821 17.6182C21.1642 17.6368 21.1448 17.6461 21.127 17.6601C21.0687 17.7005 21.0105 17.7424 20.9523 17.7827C20.943 17.7905 20.9329 17.7982 20.9228 17.8044C20.8638 17.8487 20.8009 17.8921 20.7419 17.9364C20.7365 17.9402 20.7303 17.9441 20.7248 17.948C20.4547 18.1467 20.1876 18.3492 19.9252 18.5587C19.9213 18.5626 19.9175 18.5649 19.912 18.5688C19.853 18.6169 19.7917 18.6651 19.7311 18.7132C19.7257 18.7194 19.7179 18.7264 19.711 18.731C19.652 18.7784 19.5937 18.8265 19.5371 18.8746C19.5308 18.8792 19.5239 18.8847 19.5176 18.8885C19.4555 18.9405 19.3934 18.9925 19.3313 19.0445C18.9913 19.3324 18.659 19.6289 18.3345 19.9331C13.7418 24.24 10.7258 30.2442 10.3228 37.0251C10.2561 38.1472 10.3485 40.4094 10.3609 40.6685C10.2941 40.6266 10.2273 40.5847 10.1606 40.5421C10.0946 40.4994 10.0278 40.4567 9.96185 40.4132C9.90595 40.3768 9.84928 40.3395 9.79338 40.3023C9.74603 40.2704 9.69867 40.2386 9.65131 40.206C9.60784 40.1765 9.56359 40.1471 9.52089 40.1168C9.45956 40.0749 9.39901 40.033 9.33845 39.9903C9.2779 39.9476 9.21812 39.9049 9.15835 39.8623C9.15835 39.8623 9.15679 39.8623 9.15602 39.8607C9.13972 39.8491 9.12419 39.8374 9.10789 39.8258C9.06441 39.794 9.02016 39.7621 8.97669 39.7303C8.91769 39.6861 8.85791 39.6426 8.79891 39.5976C8.75776 39.5666 8.71739 39.5355 8.67702 39.5045C8.62268 39.4634 8.56912 39.4215 8.51555 39.3796C5.55309 37.0429 3.84051 33.4367 3.99888 29.6614C4.00199 29.5939 4.00587 29.5248 4.00975 29.4565C4.07651 28.3297 4.30087 27.2502 4.66031 26.2391C4.22557 26.5937 3.70931 27.0935 3.22644 27.7593C2.4897 28.7782 2.03012 30.1697 1.92298 31.0062C1.92298 31.0062 1.92298 31.0057 1.92298 31.0047C1.92298 31.0047 1.92221 31.0031 1.92221 31.0023C1.82594 30.7284 1.73822 30.4583 1.65981 30.1929C1.62876 30.0866 1.59848 29.9811 1.57053 29.8771C1.5519 29.8111 1.53404 29.7452 1.51774 29.6792C1.50221 29.6202 1.48746 29.5613 1.47271 29.5031C1.45098 29.4154 1.43002 29.3285 1.41061 29.2415C1.39042 29.1546 1.37179 29.0677 1.35394 28.9823C1.34074 28.921 1.32832 28.8605 1.31667 28.8C1.29882 28.7092 1.28251 28.6192 1.26621 28.5291C1.25457 28.464 1.2437 28.3995 1.23361 28.3351C1.21885 28.2436 1.20488 28.1535 1.19246 28.0635C0.59003 23.8031 2.2537 20.9706 3.21712 19.7492C3.23265 19.729 3.24817 19.7104 3.26292 19.6917C3.26991 19.6824 3.27767 19.6731 3.28544 19.6638C3.29242 19.6553 3.29941 19.646 3.30717 19.6374C3.33667 19.6017 3.36462 19.5684 3.39257 19.5358C3.41586 19.5086 3.43837 19.4822 3.46011 19.4574C7.4481 14.9068 13.5236 12.3094 19.9966 13.0218C20.051 13.028 20.103 13.0342 20.1566 13.0412C21.7015 13.2235 23.1827 13.586 24.5801 14.1051C24.5801 14.1051 24.5801 14.1054 24.5801 14.1059C25.1724 14.3247 25.7492 14.5723 26.3105 14.8462L26.3058 14.847Z"
            fill="#98D9F3" />
        <path
            d="M44.0178 21.9974C44.0178 22.0843 44.0178 22.172 44.0162 22.259C44.0162 22.3459 44.0139 22.4328 44.0116 22.5197C44.01 22.5981 44.0077 22.6765 44.0046 22.7548C44.0046 22.7634 44.0046 22.7719 44.0046 22.7797C44.0038 22.7975 44.0038 22.8154 44.003 22.8332C44.0015 22.8596 44.0007 22.886 43.9992 22.9116C43.9992 22.9263 43.9992 22.9411 43.9976 22.9566C43.9976 22.976 43.9976 22.9962 43.9953 23.0164C43.9937 23.0451 43.9922 23.0746 43.9906 23.104C43.9898 23.1335 43.9883 23.1623 43.986 23.191C43.986 23.2018 43.986 23.2119 43.9844 23.2228C43.9821 23.2763 43.979 23.3299 43.9751 23.3834C43.9751 23.3997 43.9735 23.416 43.972 23.4323C43.9673 23.5122 43.9619 23.5922 43.9557 23.6721C43.9557 23.6853 43.9541 23.6985 43.9526 23.7109C43.9479 23.7691 43.9433 23.8281 43.9386 23.8863C43.9339 23.9414 43.9293 23.9965 43.9238 24.0508C43.9231 24.064 43.9215 24.0772 43.92 24.0904C43.913 24.168 43.9052 24.2456 43.8967 24.3232C43.8874 24.4101 43.878 24.497 43.868 24.5839C43.8625 24.6289 43.8579 24.674 43.8516 24.719C43.847 24.7585 43.8423 24.7973 43.8369 24.8361C43.8307 24.8866 43.8237 24.937 43.8167 24.9875C43.8113 25.0294 43.8058 25.0713 43.7996 25.1132C43.7888 25.1916 43.7771 25.2692 43.7647 25.3475C43.7562 25.4034 43.7476 25.4593 43.7383 25.5152C43.7329 25.5501 43.7274 25.585 43.7212 25.6199C43.7065 25.7107 43.691 25.8007 43.6746 25.8908C43.6599 25.9754 43.6444 26.0599 43.6281 26.1445C43.6242 26.1632 43.6211 26.181 43.6172 26.1988C43.6032 26.271 43.5892 26.3432 43.5745 26.4154C43.5621 26.4774 43.5489 26.5395 43.5357 26.6008L43.5264 26.6451C43.5233 26.659 43.5202 26.673 43.5171 26.6862C43.5031 26.7537 43.4876 26.8212 43.472 26.8887C43.4588 26.9493 43.4449 27.0098 43.4301 27.0696C43.4262 27.0874 43.4223 27.1045 43.4177 27.1223C43.4115 27.1487 43.4053 27.1743 43.3991 27.1999C43.3897 27.2379 43.3804 27.276 43.3711 27.3132C43.3509 27.3947 43.3307 27.4754 43.3098 27.5561C43.2873 27.6415 43.2647 27.7261 43.2422 27.8099C43.2057 27.9426 43.1685 28.0753 43.1289 28.2064C43.1149 28.2576 43.0994 28.3081 43.0839 28.3585C43.0466 28.4835 43.0078 28.6076 42.9674 28.7318C42.9402 28.8179 42.9123 28.9033 42.8836 28.9887C42.8649 29.0445 42.8455 29.1004 42.8269 29.1555C42.7896 29.2642 42.7516 29.3728 42.712 29.4807C42.6872 29.5505 42.6615 29.6204 42.6351 29.6894C42.6064 29.767 42.5769 29.8439 42.5474 29.9207C42.5187 29.9944 42.49 30.0673 42.4612 30.1403C42.4333 30.2101 42.4054 30.2808 42.3759 30.3506C42.3479 30.4204 42.3184 30.4895 42.2889 30.5593C42.2586 30.6307 42.2283 30.7021 42.1973 30.7728C42.1926 30.7836 42.188 30.7945 42.1833 30.8053C42.0808 31.0397 41.9737 31.2725 41.8635 31.5022C41.8348 31.5628 41.806 31.6225 41.7765 31.6823C41.6927 31.8522 41.6065 32.0214 41.5188 32.189C41.487 32.2495 41.4551 32.3101 41.4225 32.3706C41.3954 32.4218 41.3674 32.4738 41.3395 32.525C41.3053 32.5871 41.2711 32.6492 41.2362 32.7105L41.2315 32.7198C41.1888 32.7959 41.1462 32.8711 41.1027 32.9464C41.0708 33.0023 41.039 33.0574 41.0064 33.1125C41.0002 33.1226 40.9948 33.1327 40.9886 33.1427C40.9482 33.2118 40.907 33.2809 40.8651 33.3492C40.6796 33.6573 40.4863 33.9599 40.286 34.2579C40.241 34.3254 40.1951 34.3921 40.1486 34.4589C40.1167 34.5062 40.0841 34.5528 40.0508 34.5993C39.9855 34.6932 39.9188 34.7871 39.8512 34.8803C39.8093 34.9385 39.7674 34.9959 39.7247 35.0533C39.6284 35.1837 39.5306 35.3133 39.4312 35.4413C39.3816 35.5058 39.3319 35.5694 39.2814 35.633C39.1813 35.7603 39.0788 35.886 38.9755 36.0109C38.9243 36.073 38.8723 36.1351 38.8195 36.1972C38.7675 36.2585 38.7147 36.3206 38.6619 36.3819C38.6091 36.4432 38.5556 36.5037 38.502 36.5643C38.502 36.5643 38.5012 36.5643 38.5004 36.5658C38.0571 36.8591 37.6092 37.1261 37.1605 37.369C28.1939 42.2261 18.4332 37.0888 17.0039 29.6405C16.9744 29.4861 16.9473 29.3317 16.9248 29.1757C16.4698 25.9955 17.25 23.2057 18.9153 21.0227C19.3818 20.4112 19.9167 19.8478 20.5145 19.3364C20.4974 19.3395 20.4811 19.3434 20.4648 19.3465C20.4819 19.3426 20.4982 19.3395 20.5153 19.3357C21.4865 19.1323 22.5912 18.9655 23.7541 18.8437C23.7285 18.87 23.7036 18.8957 23.6788 18.922C23.5274 19.0803 23.3869 19.2425 23.2573 19.4078C23.2355 19.435 23.2146 19.4629 23.1936 19.4909C23.1618 19.532 23.1307 19.5739 23.1004 19.6158C23.0391 19.7004 22.9801 19.785 22.925 19.8711C22.897 19.9138 22.8699 19.9565 22.8435 19.9999C22.8202 20.0372 22.7969 20.0752 22.7752 20.1132C22.7193 20.2071 22.6657 20.3026 22.6168 20.3988C22.5663 20.495 22.5197 20.592 22.4755 20.6891C22.4406 20.7667 22.4072 20.845 22.3754 20.9234C22.3032 21.1027 22.2403 21.2835 22.1867 21.4651C22.1758 21.5023 22.165 21.5388 22.1549 21.5761C22.1339 21.6498 22.1153 21.7243 22.0982 21.7988C22.0803 21.8725 22.0648 21.947 22.0493 22.0215C22.0345 22.096 22.0213 22.1705 22.0097 22.2458C21.9864 22.3948 21.9678 22.5438 21.9554 22.6935C21.9484 22.7688 21.9429 22.8433 21.9398 22.9178C21.9064 23.5697 21.9717 24.2184 22.1168 24.8439C22.1494 24.9828 22.1852 25.1202 22.2247 25.2552C22.2519 25.346 22.2799 25.436 22.3094 25.5253C22.3389 25.6145 22.3707 25.703 22.4033 25.7899C22.4204 25.8341 22.4367 25.8783 22.4545 25.921C22.4677 25.9567 22.4825 25.9909 22.4965 26.0258C22.5392 26.129 22.5834 26.2314 22.6308 26.3323C22.6929 26.4666 22.7596 26.5985 22.8287 26.7281C22.8807 26.8251 22.9351 26.9206 22.991 27.0145C23.0469 27.1091 23.1043 27.2007 23.1633 27.2923C23.2223 27.3823 23.2829 27.4708 23.3458 27.5577C23.3675 27.5872 23.3877 27.6159 23.4086 27.6446C23.4506 27.7012 23.4933 27.7571 23.5375 27.813C23.6245 27.924 23.7145 28.0311 23.8069 28.1343C23.8527 28.1863 23.8993 28.2375 23.9466 28.2871C23.9948 28.336 24.0421 28.3849 24.0903 28.433C24.1625 28.5044 24.2354 28.5743 24.3107 28.641C24.348 28.6736 24.386 28.7062 24.4241 28.7388C24.4947 28.7993 24.5669 28.8575 24.6391 28.9134C24.7602 29.0073 24.8829 29.0934 25.0079 29.1734C25.5893 29.5443 26.1731 29.8407 26.7585 30.0697C26.8408 30.1023 26.9246 30.1333 27.0077 30.1628C27.1614 30.2187 27.3151 30.2699 27.4688 30.3149C27.5193 30.3296 27.5705 30.3452 27.6218 30.3591C27.6738 30.3731 27.725 30.3871 27.777 30.401C27.8787 30.4274 27.9804 30.4523 28.0821 30.4748H28.0837C28.1854 30.4973 28.2871 30.5182 28.3896 30.5368C28.5425 30.564 28.6962 30.5881 28.8484 30.6075C28.9501 30.6207 29.051 30.6315 29.1527 30.6408C29.915 30.7091 30.6704 30.6726 31.4118 30.5438C31.484 30.5306 31.5562 30.5167 31.6284 30.5027C31.7014 30.488 31.7728 30.4724 31.845 30.4569C31.8683 30.4515 31.8923 30.4453 31.9172 30.4398C32.0662 30.4057 32.2137 30.3669 32.3612 30.325C32.4575 30.2978 32.5522 30.2691 32.6477 30.2388C32.7432 30.2078 32.8371 30.176 32.9318 30.1434C32.9637 30.1318 32.9947 30.1209 33.0258 30.1093C33.1259 30.072 33.2261 30.034 33.3254 29.9952C33.5257 29.9152 33.7237 29.8291 33.9193 29.7375C33.9923 29.7026 34.0653 29.6669 34.1382 29.6312C34.2112 29.5955 34.2834 29.5583 34.3564 29.5202C34.4527 29.469 34.5482 29.417 34.6436 29.3643C34.7873 29.2836 34.9285 29.2005 35.0698 29.1144C35.1172 29.0857 35.1638 29.0562 35.2104 29.0259C35.3043 28.9677 35.3967 28.9072 35.4891 28.8451C35.6738 28.7217 35.8563 28.5921 36.0364 28.4579C36.1707 28.3578 36.3042 28.2553 36.4362 28.149C36.6132 28.0078 36.7871 27.8611 36.9579 27.7105C37.0852 27.5972 37.2125 27.4816 37.3375 27.3637C38.2629 26.4906 39.1029 25.4826 39.8272 24.3923C39.887 24.3046 39.9452 24.2153 40.0018 24.1253C40.0981 23.9755 40.192 23.825 40.2829 23.6721C40.3434 23.5712 40.404 23.4696 40.4614 23.3679C40.4917 23.3159 40.5212 23.2647 40.5499 23.2127C40.5787 23.1615 40.6074 23.1095 40.6353 23.0583C40.7215 22.9023 40.8046 22.7463 40.8845 22.5888C40.9653 22.4312 41.0437 22.2729 41.1198 22.1123C41.1958 21.9532 41.2696 21.7933 41.3395 21.6319C41.3635 21.5784 41.3876 21.5241 41.4101 21.4697C41.48 21.3091 41.5467 21.1461 41.6104 20.9839C41.6329 20.9288 41.6539 20.8737 41.6748 20.8194C41.7377 20.6557 41.7975 20.4919 41.8542 20.3274C41.8736 20.2723 41.893 20.218 41.9108 20.1629C41.9481 20.0527 41.9838 19.9425 42.018 19.8323H42.0187C42.0537 19.7213 42.0871 19.6111 42.1189 19.501C42.1189 19.501 42.1189 19.501 42.1189 19.4994C42.1507 19.39 42.1818 19.279 42.2105 19.1688C42.2268 19.1129 42.2408 19.0571 42.2555 19.0012C42.2982 18.8359 42.3378 18.669 42.3751 18.503C42.3751 18.5022 42.3759 18.5022 42.3759 18.5022C42.3999 18.3912 42.4232 18.2803 42.4449 18.1701C42.4799 17.9947 42.5117 17.8193 42.5404 17.6447C42.5653 17.4941 42.587 17.3444 42.6056 17.1946C42.6157 17.1201 42.6251 17.0448 42.6328 16.9703C42.667 16.6677 42.691 16.3658 42.7042 16.0655C42.7151 15.8234 42.7182 15.5828 42.7143 15.3445C42.7143 15.2794 42.712 15.2149 42.7097 15.1505C42.7097 15.1079 42.7073 15.066 42.705 15.0233C42.6996 14.9022 42.6724 14.5569 42.6584 14.3745C42.66 14.3776 42.6615 14.3807 42.6623 14.3846C42.6662 14.3931 42.6693 14.4017 42.6724 14.4102C42.7679 14.6694 42.8579 14.9301 42.9433 15.194C42.969 15.2724 42.9938 15.3508 43.0187 15.4291C43.08 15.627 43.139 15.8257 43.1957 16.0259C43.2151 16.095 43.2337 16.1633 43.2523 16.2323C43.2694 16.2952 43.2865 16.358 43.3028 16.4209L43.3447 16.5839C43.3501 16.6064 43.3556 16.6289 43.3618 16.6522C43.3672 16.677 43.3734 16.7018 43.3796 16.7267C43.3859 16.7507 43.3921 16.7755 43.3975 16.7996C43.4115 16.8562 43.4247 16.9129 43.4379 16.9703C43.4464 17.0052 43.4542 17.0402 43.4619 17.0751C43.4689 17.1046 43.4759 17.1341 43.4821 17.1636C43.4922 17.2062 43.5015 17.2489 43.5108 17.2916C43.5139 17.3048 43.5171 17.318 43.5194 17.332C43.5357 17.408 43.552 17.4841 43.5675 17.5601C43.5799 17.6191 43.5916 17.6781 43.6032 17.7378C43.6094 17.7689 43.6156 17.7999 43.6211 17.8317C43.6288 17.8721 43.6366 17.9132 43.6444 17.9543C43.6537 18.0024 43.6622 18.0506 43.6708 18.0994C43.6871 18.1895 43.7026 18.2795 43.7173 18.3703C43.743 18.5216 43.7663 18.6737 43.788 18.8266C43.7958 18.8794 43.8035 18.9321 43.8105 18.9857C43.8198 19.054 43.8291 19.1223 43.8377 19.1913C43.8478 19.2697 43.8571 19.3481 43.8664 19.4265C43.8796 19.5374 43.8912 19.6492 43.9029 19.7609C43.913 19.8634 43.9231 19.9666 43.9316 20.0698C43.9386 20.1489 43.9448 20.2289 43.951 20.3088C43.9526 20.3235 43.9533 20.3383 43.9541 20.3523C43.9557 20.3647 43.9565 20.3779 43.9572 20.3903C43.9619 20.4539 43.9658 20.5168 43.9697 20.5804C43.9751 20.6549 43.979 20.7302 43.9828 20.8047C43.9852 20.8481 43.9875 20.8908 43.9891 20.9343C43.9929 21.0111 43.9968 21.0887 43.9992 21.1655C44.0015 21.2307 44.0038 21.2959 44.0054 21.3603C44.0077 21.4294 44.0092 21.4977 44.0108 21.5667C44.0108 21.6249 44.0123 21.6839 44.0131 21.7421C44.0139 21.8252 44.0147 21.909 44.0147 21.9928L44.0178 21.9974Z"
            fill="#3D8FCD" />
    </g>
    <defs>
        <radialGradient id="paint0_radial_122_208" cx="0" cy="0" r="1"
            gradientUnits="userSpaceOnUse"
            gradientTransform="translate(22.0058 21.9973) scale(22.0058 21.9973)">
            <stop stop-color="#1F2467" />
            <stop offset="1" stop-color="#3740B9" />
        </radialGradient>
    </defs>
</svg>
    