<svg width="226" height="45" viewBox="0 0 226 45" fill="none" xmlns="http://www.w3.org/2000/svg">
    <g clip-path="url(#clip0_148_3)">
        <path
            d="M68.0875 29.5647L65.3215 25.5704H62.2682V29.5647H58.9486V15.2268H65.1569C66.427 15.2268 67.5301 15.4386 68.4664 15.8616C69.4018 16.2853 70.1223 16.8859 70.6277 17.6643C71.1331 18.4426 71.3854 19.3646 71.3854 20.4293C71.3854 21.494 71.1292 22.4128 70.6168 23.1842C70.1044 23.9555 69.377 24.5461 68.4345 24.9558L71.6516 29.5639H68.0868L68.0875 29.5647ZM67.2475 18.5761C66.7282 18.1462 65.9705 17.9312 64.9729 17.9312H62.2682V22.9289H64.9729C65.9697 22.9289 66.7282 22.7108 67.2475 22.2731C67.7669 21.8362 68.0262 21.2216 68.0262 20.43C68.0262 19.6385 67.7669 19.0068 67.2475 18.5761Z"
            fill="white" />
        <path
            d="M75.597 28.1104C74.4565 26.9774 73.8859 25.3594 73.8859 23.2563V15.2276H77.2055V23.1337C77.2055 25.7008 78.2706 26.9844 80.4016 26.9844C81.4396 26.9844 82.2322 26.674 82.7788 26.0524C83.3253 25.4315 83.5985 24.4584 83.5985 23.1337V15.2276H86.877V23.2563C86.877 25.3594 86.3064 26.9774 85.166 28.1104C84.0255 29.2442 82.431 29.8107 80.3815 29.8107C78.332 29.8107 76.7374 29.2442 75.597 28.1104Z"
            fill="white" />
        <path
            d="M99.8463 22.1707H102.879V27.9878C102.1 28.5752 101.199 29.0253 100.174 29.3396C99.1491 29.6539 98.1182 29.8107 97.0802 29.8107C95.5912 29.8107 94.2528 29.4933 93.0643 28.8585C91.8757 28.2237 90.9434 27.3429 90.2672 26.2161C89.591 25.0893 89.2533 23.8166 89.2533 22.3965C89.2533 20.9764 89.5918 19.7029 90.2672 18.5769C90.9434 17.4501 91.8827 16.5693 93.0845 15.9345C94.2862 15.2997 95.6386 14.9823 97.1415 14.9823C98.3984 14.9823 99.5388 15.1942 100.564 15.6171C101.588 16.0408 102.449 16.6547 103.146 17.4602L101.015 19.4266C99.9899 18.348 98.754 17.8086 97.3061 17.8086C96.3908 17.8086 95.578 18.0003 94.8677 18.3821C94.1573 18.7647 93.6038 19.304 93.2079 20.0001C92.8112 20.6962 92.614 21.4955 92.614 22.3965C92.614 23.2975 92.812 24.0758 93.2079 24.7727C93.6038 25.4688 94.1535 26.012 94.8576 26.4008C95.5609 26.7896 96.3637 26.9844 97.265 26.9844C98.2206 26.9844 99.0816 26.7795 99.847 26.3698V22.1707H99.8463Z"
            fill="white" />
        <path
            d="M109.272 17.8893V21.6787H115.91V24.3412H109.272V29.5639H105.952V15.2268H116.791V17.8893H109.272Z"
            fill="white" />
        <path
            d="M128.183 29.5647L125.417 25.5704H122.364V29.5647H119.044V15.2268H125.252C126.522 15.2268 127.626 15.4386 128.562 15.8616C129.497 16.2853 130.218 16.8859 130.723 17.6643C131.229 18.4426 131.481 19.3646 131.481 20.4293C131.481 21.494 131.225 22.4128 130.712 23.1842C130.2 23.9555 129.472 24.5461 128.53 24.9558L131.747 29.5639H128.182L128.183 29.5647ZM127.343 18.5761C126.824 18.1462 126.066 17.9312 125.068 17.9312H122.364V22.9289H125.068C126.065 22.9289 126.824 22.7108 127.343 22.2731C127.862 21.8362 128.122 21.2216 128.122 20.43C128.122 19.6385 127.862 19.0068 127.343 18.5761Z"
            fill="white" />
        <path
            d="M145.21 26.9013V29.5639H134.105V15.2268H144.944V17.8893H137.403V21.0028H144.063V23.5838H137.403V26.9021H145.21V26.9013Z"
            fill="white" />
        <path
            d="M158.958 26.9013V29.5639H147.853V15.2268H158.692V17.8893H151.151V21.0028H157.811V23.5838H151.151V26.9021H158.958V26.9013Z"
            fill="white" />
        <path
            d="M164.624 28.7452C163.483 28.1174 162.588 27.2467 161.939 26.1339C161.29 25.021 160.966 23.7755 160.966 22.3957C160.966 21.016 161.29 19.7712 161.939 18.6576C162.587 17.5448 163.486 16.6741 164.634 16.0463C165.781 15.4185 167.065 15.1042 168.486 15.1042C169.551 15.1042 170.535 15.2819 171.437 15.6365C172.338 15.9919 173.103 16.5103 173.732 17.1932L172.769 18.1555C171.649 17.0225 170.235 16.4552 168.528 16.4552C167.394 16.4552 166.363 16.7144 165.434 17.2336C164.505 17.7528 163.778 18.4628 163.252 19.3638C162.726 20.2648 162.463 21.2759 162.463 22.395C162.463 23.514 162.726 24.5252 163.252 25.4261C163.778 26.3271 164.505 27.0372 165.434 27.5563C166.363 28.0755 167.394 28.3347 168.528 28.3347C170.249 28.3347 171.663 27.7612 172.769 26.6142L173.732 27.5765C173.103 28.2594 172.335 28.7817 171.427 29.1433C170.518 29.5049 169.532 29.6857 168.466 29.6857C167.045 29.6857 165.764 29.3714 164.624 28.7436V28.7452Z"
            fill="white" />
        <path
            d="M179.069 28.7351C177.914 28.1003 177.013 27.2296 176.364 26.1238C175.715 25.0179 175.391 23.7755 175.391 22.3957C175.391 21.016 175.715 19.7743 176.364 18.6677C177.012 17.5619 177.914 16.6911 179.069 16.0564C180.223 15.4216 181.51 15.1042 182.931 15.1042C184.352 15.1042 185.632 15.4185 186.773 16.0463C187.914 16.6749 188.812 17.5448 189.468 18.6576C190.124 19.7704 190.451 21.0167 190.451 22.3957C190.451 23.7747 190.124 25.021 189.468 26.1339C188.812 27.2467 187.914 28.1174 186.773 28.7452C185.633 29.3738 184.352 29.6873 182.931 29.6873C181.51 29.6873 180.223 29.3699 179.069 28.7351ZM186.005 27.568C186.92 27.0558 187.636 26.3457 188.156 25.4378C188.675 24.5298 188.934 23.5163 188.934 22.3965C188.934 21.2767 188.675 20.2632 188.156 19.3553C187.636 18.4473 186.919 17.7372 186.005 17.2251C185.089 16.7129 184.065 16.4568 182.931 16.4568C181.798 16.4568 180.77 16.7129 179.847 17.2251C178.925 17.7372 178.202 18.4473 177.675 19.3553C177.149 20.2632 176.887 21.2775 176.887 22.3965C176.887 23.5155 177.15 24.5298 177.675 25.4378C178.201 26.3457 178.925 27.0558 179.847 27.568C180.77 28.0801 181.798 28.3362 182.931 28.3362C184.065 28.3362 185.089 28.0801 186.005 27.568Z"
            fill="white" />
        <path d="M193.852 15.2268H195.368V29.5639H193.852V15.2268Z" fill="white" />
        <path
            d="M212.025 15.2268V29.5639H210.776L201.555 17.9305V29.5639H200.039V15.2268H201.289L210.529 26.8602V15.2268H212.025Z"
            fill="white" />
        <path
            d="M217.589 29.1751C216.612 28.8337 215.857 28.3836 215.325 27.8233L215.919 26.6561C216.438 27.1753 217.127 27.5951 217.988 27.9156C218.849 28.2369 219.737 28.3968 220.652 28.3968C221.936 28.3968 222.899 28.1608 223.541 27.6898C224.183 27.2187 224.503 26.608 224.503 25.8568C224.503 25.2833 224.329 24.8263 223.981 24.4848C223.632 24.1433 223.205 23.8803 222.7 23.6964C222.195 23.5117 221.491 23.3107 220.59 23.0918C219.511 22.8187 218.65 22.5564 218.008 22.3034C217.366 22.0512 216.816 21.6655 216.358 21.1463C215.9 20.6279 215.672 19.9249 215.672 19.0371C215.672 18.3138 215.863 17.6542 216.246 17.0605C216.628 16.4669 217.215 15.9919 218.008 15.6373C218.8 15.2827 219.783 15.1049 220.959 15.1049C221.778 15.1049 222.58 15.2175 223.366 15.4425C224.152 15.6676 224.831 15.9788 225.405 16.3745L224.892 17.5828C224.291 17.187 223.649 16.8898 222.966 16.6919C222.283 16.494 221.614 16.3947 220.958 16.3947C219.701 16.3947 218.755 16.6376 218.12 17.1218C217.485 17.6069 217.168 18.2316 217.168 18.996C217.168 19.5694 217.342 20.0304 217.69 20.3788C218.039 20.7273 218.476 20.9935 219.002 21.1774C219.527 21.3621 220.234 21.5631 221.122 21.7819C222.174 22.0411 223.024 22.2972 223.673 22.5502C224.322 22.8031 224.872 23.185 225.323 23.6971C225.774 24.2093 225.999 24.9023 225.999 25.7761C225.999 26.5001 225.804 27.159 225.416 27.7527C225.027 28.3463 224.429 28.8174 223.623 29.1658C222.817 29.5142 221.827 29.6881 220.652 29.6881C219.587 29.6881 218.565 29.5173 217.589 29.1759V29.1751Z"
            fill="white" />
        <path
            d="M22.0063 44.393C34.1597 44.393 44.0121 34.5445 44.0121 22.3957C44.0121 10.247 34.1597 0.398438 22.0063 0.398438C9.85286 0.398438 0.000549316 10.247 0.000549316 22.3957C0.000549316 34.5445 9.85286 44.393 22.0063 44.393Z"
            fill="url(#paint0_radial_148_3)" />
        <mask id="mask0_148_3" style="mask-type:luminance" maskUnits="userSpaceOnUse" x="0" y="0"
            width="45" height="45">
            <path
                d="M22.0063 44.393C34.1597 44.393 44.0121 34.5445 44.0121 22.3957C44.0121 10.247 34.1597 0.398438 22.0063 0.398438C9.85286 0.398438 0.000549316 10.247 0.000549316 22.3957C0.000549316 34.5445 9.85286 44.393 22.0063 44.393Z"
                fill="white" />
        </mask>
        <g mask="url(#mask0_148_3)">
            <path
                d="M28.9529 13.4861C27.7861 13.3503 27.0113 13.4023 27.0113 13.4023C27.0113 13.4023 26.8708 13.4365 26.6193 13.5257C25.784 12.9142 24.7685 12.5293 23.6576 12.4633C23.5458 12.4571 23.4348 12.4532 23.3238 12.4532C22.1539 12.4532 21.0569 12.8164 20.1517 13.4396C20.0981 13.4326 20.0461 13.4264 19.9918 13.4202C13.5188 12.7078 7.44324 15.3051 3.45525 19.8558C3.43352 19.8806 3.411 19.907 3.38771 19.9342C3.35977 19.9667 3.33104 20.0001 3.30232 20.0358C3.29455 20.0443 3.28757 20.0537 3.28058 20.0622C3.25807 20.0894 3.23555 20.1173 3.21226 20.1468H3.19907C2.9584 20.146 2.64787 20.1724 2.36451 20.2764C1.48338 20.5984 0.882507 21.2588 0.882507 21.2588C1.79702 16.0618 4.83867 11.6547 9.03394 8.89904L7.48672 8.63829C10.9204 6.6245 15.2849 5.82442 19.5633 5.82442C29.2355 5.82442 33.0193 11.8107 28.9545 13.4854L28.9529 13.4861Z"
                fill="#BAE4F1" />
            <path
                d="M38.4979 36.968C38.4917 36.9757 38.4847 36.9827 38.4777 36.9905C38.4684 37.0013 38.4583 37.013 38.4482 37.0246C38.3985 37.0797 38.3488 37.1348 38.2991 37.1891C38.2952 37.193 38.2914 37.1977 38.2883 37.2016C38.237 37.2574 38.1858 37.3133 38.1338 37.3684C38.1291 37.3738 38.1245 37.3785 38.1198 37.3839C38.0918 37.4134 38.0639 37.4437 38.036 37.4732C38.029 37.4809 38.022 37.4887 38.0142 37.4964C37.9793 37.5345 37.9436 37.5717 37.9079 37.6082C37.9032 37.6128 37.8985 37.6183 37.8939 37.6229L37.8892 37.6276C37.8489 37.6703 37.8085 37.7122 37.7666 37.7541C37.7635 37.758 37.7596 37.7618 37.7557 37.7657C37.751 37.7704 37.7464 37.7758 37.741 37.7805C37.6967 37.8255 37.6532 37.8705 37.6082 37.9147C37.5639 37.9597 37.5189 38.004 37.4739 38.0482C37.4289 38.0932 37.3838 38.1367 37.3388 38.1809C37.2938 38.2251 37.2488 38.2686 37.203 38.312L37.1913 38.3237C37.1727 38.3415 37.1533 38.3602 37.1339 38.3772C37.0896 38.4191 37.0454 38.461 37.0003 38.5029C36.9918 38.5107 36.984 38.5185 36.9755 38.5255C36.9227 38.5751 36.8691 38.624 36.8156 38.6729C36.8125 38.676 36.8086 38.6791 36.8055 38.6822C36.7504 38.7319 36.6945 38.7823 36.6386 38.832C36.623 38.8467 36.6067 38.8607 36.5904 38.8754C36.5788 38.8855 36.5671 38.8964 36.5547 38.9065C36.5128 38.9437 36.4709 38.9802 36.4282 39.0167C36.3692 39.0679 36.3102 39.1191 36.2504 39.1696C36.2372 39.1812 36.224 39.1921 36.21 39.2037C36.1596 39.2464 36.1091 39.2891 36.0579 39.331C36.0423 39.3442 36.026 39.3574 36.0105 39.3705C35.9872 39.3892 35.9647 39.4086 35.9414 39.4264C35.8754 39.4815 35.8087 39.5358 35.7411 39.5886C35.7085 39.615 35.6759 39.6414 35.6425 39.667C35.5742 39.7221 35.5051 39.7756 35.4353 39.8284C35.4197 39.8416 35.4034 39.854 35.3871 39.8664C35.332 39.9091 35.2777 39.951 35.2225 39.9914C35.1558 40.0418 35.089 40.0915 35.0215 40.1404C34.9935 40.1613 34.9656 40.1823 34.9369 40.2024C34.9213 40.2141 34.9058 40.2257 34.8895 40.2366C34.8453 40.2692 34.801 40.3002 34.7568 40.332C34.7536 40.3344 34.7513 40.3359 34.7482 40.3383C34.6884 40.3809 34.6279 40.4236 34.5666 40.4655C34.5192 40.4989 34.4718 40.5315 34.4253 40.5633C34.4035 40.5788 34.381 40.5936 34.3593 40.6083C34.3057 40.6448 34.2521 40.6813 34.1978 40.717C34.1737 40.7333 34.1489 40.7495 34.1248 40.7658C34.0984 40.7837 34.0713 40.8015 34.0441 40.8186C34.0099 40.8411 33.9758 40.8628 33.9416 40.8854C33.9354 40.8892 33.9284 40.8939 33.9222 40.8978C33.8772 40.9273 33.8321 40.956 33.7863 40.9839L33.7235 41.0235C33.6893 41.046 33.6544 41.0685 33.6194 41.0894C33.6132 41.0933 33.6062 41.098 33.6 41.1011C33.4898 41.1694 33.3788 41.2369 33.2678 41.3036C33.2491 41.3145 33.2313 41.3254 33.2126 41.3362C33.1125 41.3952 33.0116 41.4542 32.9099 41.5124C32.8796 41.5302 32.8485 41.5473 32.8175 41.5652C32.7569 41.5993 32.6964 41.6334 32.635 41.6668C32.6343 41.6676 32.6335 41.6684 32.6319 41.6684C32.5815 41.6971 32.5302 41.725 32.4782 41.7522C32.4635 41.7607 32.448 41.7693 32.4332 41.777C32.3657 41.8135 32.2989 41.8492 32.2321 41.8841C32.0489 41.9803 31.8649 42.0735 31.6786 42.165C31.6623 42.1728 31.6468 42.1805 31.6305 42.1883C31.6103 42.1984 31.5901 42.2077 31.5699 42.2178C31.49 42.2566 31.4085 42.2946 31.3277 42.3326C31.3029 42.3451 31.2773 42.3567 31.2524 42.3683C31.1856 42.3986 31.1189 42.4289 31.0521 42.4591C30.9854 42.4894 30.9178 42.5197 30.8503 42.5492C30.806 42.5686 30.761 42.588 30.7167 42.6074L30.6469 42.6376C30.5848 42.664 30.5227 42.6896 30.4598 42.716C30.4489 42.7207 30.4373 42.7253 30.4256 42.7307C30.3635 42.7556 30.3014 42.782 30.2385 42.8068C30.1702 42.834 30.1011 42.8619 30.0328 42.8891C29.9443 42.9232 29.855 42.9573 29.7657 42.9915C29.7099 43.0124 29.6532 43.0334 29.5965 43.0536C29.5344 43.0769 29.4715 43.0994 29.4094 43.1219C29.3395 43.1467 29.2689 43.1715 29.199 43.1956C28.9933 43.2662 28.7852 43.3345 28.5772 43.3997C28.5368 43.4129 28.4965 43.4253 28.4553 43.4377C28.4204 43.4486 28.3854 43.4587 28.3505 43.4695C28.2791 43.4905 28.2077 43.5122 28.1355 43.5324C28.1331 43.5324 28.1308 43.5347 28.1285 43.5347C28.0594 43.5549 27.9895 43.5743 27.9196 43.5937C27.7838 43.6317 27.6472 43.6682 27.5097 43.7039C27.4399 43.7217 27.3692 43.7396 27.2994 43.7567C27.2147 43.7776 27.1301 43.7986 27.0447 43.818C26.9896 43.8312 26.9345 43.8443 26.8786 43.8568C26.8343 43.8669 26.7893 43.8769 26.7451 43.8863C26.589 43.9204 26.433 43.953 26.2762 43.984C26.0875 44.0205 25.8989 44.0554 25.7087 44.0872C25.6528 44.0966 25.5969 44.1059 25.541 44.1152C25.5216 44.1183 25.5029 44.1214 25.4835 44.1245C25.4315 44.1323 25.3795 44.1408 25.3275 44.1486C25.2002 44.168 25.0729 44.1858 24.9448 44.2029C24.8803 44.2114 24.8167 44.2199 24.7522 44.2277C24.6886 44.2355 24.6241 44.2432 24.5597 44.251C24.2375 44.2875 23.9138 44.3177 23.5885 44.341C23.5233 44.3457 23.4581 44.3503 23.3921 44.3542C23.2617 44.362 23.1305 44.3689 22.9993 44.3752C22.9341 44.3783 22.8681 44.3806 22.8021 44.3829C22.7361 44.3852 22.6701 44.3876 22.6049 44.3891C22.4069 44.3946 22.2082 44.3969 22.0095 44.3969C21.8107 44.3969 21.6128 44.3946 21.4148 44.3891C21.3473 44.3876 21.2789 44.3852 21.2114 44.3829C21.0787 44.3783 20.9467 44.372 20.8147 44.3651C20.7487 44.3612 20.6827 44.3573 20.6167 44.3534C20.5515 44.3495 20.4855 44.3449 20.4203 44.3402C20.3543 44.3356 20.2891 44.3309 20.2231 44.3255C20.0267 44.31 19.8311 44.2913 19.6362 44.2704C19.5066 44.2564 19.3769 44.2417 19.2481 44.2254C19.1984 44.2192 19.1495 44.213 19.1006 44.2068C19.0765 44.2029 19.0524 44.1998 19.0276 44.1967C18.9725 44.1889 18.9166 44.1811 18.8615 44.1734C18.7528 44.1579 18.6449 44.1416 18.537 44.1245C18.325 44.0911 18.1146 44.0547 17.9043 44.0151C17.7777 43.991 17.6512 43.9662 17.5254 43.9398C17.3996 43.9134 17.2739 43.8863 17.1489 43.8583C17.0907 43.8451 17.0332 43.8319 16.9758 43.8187C16.9602 43.8149 16.9455 43.8118 16.93 43.8079C16.8158 43.7807 16.7025 43.7528 16.5892 43.7248C16.527 43.7085 16.4649 43.693 16.4036 43.6767C16.2802 43.6441 16.1567 43.6108 16.0341 43.5766C15.9728 43.5588 15.9122 43.5417 15.8509 43.5238C15.729 43.4881 15.6071 43.4517 15.486 43.4144C15.3804 43.3818 15.2748 43.3477 15.1693 43.3135C15.0963 43.2895 15.0233 43.2654 14.9511 43.2406C14.8805 43.2165 14.8106 43.1925 14.7399 43.1677C14.4985 43.0838 14.2602 42.9954 14.0234 42.9023C13.8899 42.8503 13.7571 42.7967 13.6244 42.7424C13.5576 42.7152 13.4916 42.6873 13.4256 42.6594C13.2284 42.5763 13.032 42.4894 12.8379 42.4002C12.789 42.3777 12.7401 42.3551 12.6912 42.3319C12.6423 42.3094 12.5942 42.2869 12.546 42.2636C12.487 42.2356 12.428 42.2069 12.3698 42.1782C12.3046 42.1464 12.2402 42.1146 12.1757 42.082C11.9801 41.985 11.786 41.8841 11.5935 41.7801C11.5461 41.7545 11.498 41.7281 11.4499 41.7017C11.3901 41.6691 11.3303 41.6365 11.2705 41.6032C11.1556 41.5388 11.0415 41.4736 10.9282 41.4068C10.8451 41.358 10.762 41.3091 10.6798 41.2594C10.6596 41.2478 10.6394 41.2353 10.6192 41.2229C10.554 41.1841 10.4888 41.1438 10.4243 41.1034C10.4049 41.0918 10.3855 41.0794 10.3661 41.0669C10.3537 40.8078 10.2613 38.5456 10.3281 37.4235C10.7302 30.6433 13.7462 24.6392 18.3398 20.3315C18.9011 20.1243 19.6013 19.9318 20.3955 19.7634C20.4032 19.7619 20.4118 19.7603 20.4195 19.7588C20.4366 19.7549 20.4529 19.7518 20.4692 19.7479C20.4855 19.7448 20.5018 19.7409 20.5189 19.7378C19.9219 20.2484 19.387 20.8118 18.9197 21.4241C17.2545 23.6071 16.4743 26.3969 16.9292 29.5771C16.9517 29.7331 16.9789 29.8875 17.0084 30.0419C18.4368 37.4902 28.1983 42.6275 37.1649 37.7704C37.6136 37.5275 38.0616 37.2605 38.5049 36.9672L38.4979 36.968Z"
                fill="#6BB9E7" />
            <path
                d="M35.8273 21.8401C35.8273 19.1085 29.1742 18.6739 23.7523 19.2443V19.2458H23.7515C22.5886 19.3677 21.4839 19.5345 20.5127 19.7378C20.4956 19.7417 20.4793 19.7448 20.4622 19.7487C20.4459 19.7526 20.4296 19.7557 20.4125 19.7596C20.4048 19.7611 20.3962 19.7627 20.3885 19.7642C19.5951 19.9326 18.8948 20.1251 18.3328 20.3323C18.6573 20.0281 18.9895 19.7316 19.3296 19.4437C19.3917 19.3917 19.4538 19.3397 19.5159 19.2877C19.5221 19.2838 19.5291 19.2784 19.5353 19.2738C19.592 19.2256 19.6502 19.1775 19.7092 19.1302C19.7162 19.1255 19.7239 19.1186 19.7294 19.1123C19.7899 19.0642 19.8513 19.0161 19.9103 18.968C19.9157 18.9641 19.9196 18.9618 19.9235 18.9579C20.1859 18.7484 20.4529 18.5458 20.7231 18.3472C20.7285 18.3433 20.7347 18.3394 20.7402 18.3355C20.7992 18.2913 20.862 18.2478 20.921 18.2036C20.9311 18.1974 20.9412 18.1896 20.9505 18.1819C21.0088 18.1415 21.067 18.0996 21.1252 18.0593C21.1431 18.0453 21.1625 18.036 21.1803 18.0174C21.2292 17.9832 21.2774 17.9514 21.3271 17.9173C21.3371 17.9118 21.3488 17.9033 21.3589 17.8971C21.5654 17.7535 21.775 17.6154 21.9854 17.4796C21.99 17.4757 21.9955 17.4734 21.9994 17.471C22.0638 17.4291 22.1259 17.3896 22.1896 17.3492C22.2035 17.3407 22.2159 17.3329 22.2299 17.3236C22.2858 17.2895 22.3417 17.2538 22.3961 17.2196C22.4139 17.2095 22.4302 17.1994 22.4473 17.1893C22.5001 17.1568 22.5544 17.1234 22.608 17.0908C22.6243 17.0807 22.6422 17.0714 22.6577 17.0605C22.7144 17.0272 22.7718 16.993 22.8285 16.9589C22.8417 16.9511 22.8556 16.9433 22.8681 16.9356C22.9379 16.8945 23.0078 16.8533 23.0784 16.8145V16.813C23.2221 16.7307 23.3665 16.6492 23.5109 16.5693C23.5287 16.5592 23.545 16.5507 23.5629 16.5414C23.6164 16.5126 23.6692 16.4832 23.7244 16.4544C23.7453 16.4428 23.7686 16.4304 23.7896 16.4188C23.7934 16.4164 23.7973 16.4149 23.8004 16.4125C23.8462 16.3885 23.892 16.3644 23.9378 16.3404C23.9619 16.3272 23.986 16.3148 24.01 16.3023C24.0582 16.2767 24.1079 16.2511 24.156 16.2263C24.1801 16.2147 24.2041 16.2022 24.2266 16.1906C24.2771 16.165 24.3268 16.1386 24.3772 16.113C24.4005 16.1029 24.4223 16.0913 24.4448 16.0804C24.5108 16.047 24.5783 16.0144 24.6443 15.9811C24.6505 15.9787 24.6567 15.9764 24.6614 15.9741C24.7351 15.9384 24.8089 15.9027 24.8834 15.867C24.9013 15.8585 24.9191 15.8507 24.937 15.8422C24.9913 15.8166 25.0457 15.7909 25.1016 15.7661C25.1272 15.7529 25.1536 15.7421 25.1792 15.7289C25.2273 15.7071 25.2755 15.6862 25.3213 15.6645C25.35 15.652 25.3795 15.6388 25.409 15.6264C25.4532 15.6047 25.499 15.5861 25.5441 15.5667C25.5736 15.5527 25.6031 15.5403 25.6333 15.5271C25.6776 15.5069 25.7257 15.4867 25.7715 15.4681C25.7995 15.4549 25.8274 15.4425 25.8561 15.4309C25.9074 15.4099 25.9578 15.389 26.0075 15.368C26.0316 15.3579 26.0557 15.3478 26.0805 15.337C26.1543 15.3067 26.2296 15.2764 26.3041 15.2462C25.7436 14.9722 25.1668 14.7247 24.5737 14.5058C25.4703 13.9696 26.1977 13.6739 26.6169 13.5273C26.8685 13.438 27.009 13.4039 27.009 13.4039C27.009 13.4039 27.783 13.3519 28.9506 13.4877C30.7998 13.7003 33.6357 14.3825 35.9476 16.4801C37.6617 18.0368 36.8971 20.6427 35.8242 21.8416L35.8273 21.8401Z"
                fill="#FDBB11" />
            <path
                d="M26.3064 15.2454C26.2319 15.2757 26.1566 15.3059 26.0828 15.3362C26.058 15.347 26.0339 15.3571 26.0098 15.3672C25.9602 15.3882 25.9097 15.4091 25.8585 15.4301C25.8297 15.4417 25.8018 15.4541 25.7738 15.4673C25.728 15.486 25.6799 15.5061 25.6357 15.5263C25.6054 15.5395 25.5759 15.5519 25.5464 15.5659C25.5013 15.5853 25.4555 15.6039 25.4113 15.6256C25.3818 15.6381 25.3523 15.6513 25.3236 15.6637C25.2778 15.6854 25.2296 15.7063 25.1815 15.7281C25.1559 15.7413 25.1295 15.7521 25.1039 15.7653C25.048 15.7902 24.9936 15.8158 24.9393 15.8414C24.9214 15.8499 24.9036 15.8577 24.8857 15.8662C24.8112 15.9019 24.7374 15.9376 24.6637 15.9733C24.659 15.9756 24.6528 15.978 24.6466 15.9803C24.5806 16.0137 24.5131 16.0463 24.4471 16.0796C24.4246 16.0905 24.4028 16.1021 24.3796 16.1122C24.3291 16.1378 24.2794 16.1642 24.2289 16.1898C24.2064 16.2015 24.1824 16.2139 24.1583 16.2255C24.1102 16.2503 24.0605 16.276 24.0124 16.3016C23.9883 16.314 23.9642 16.3264 23.9402 16.3396C23.8944 16.3636 23.8485 16.3877 23.8027 16.4118C23.8027 16.4118 23.7958 16.4156 23.7919 16.418C23.7709 16.4296 23.7476 16.442 23.7267 16.4537C23.6715 16.4824 23.6188 16.5119 23.5652 16.5406C23.5473 16.5499 23.531 16.5584 23.5132 16.5685C23.3688 16.6484 23.2244 16.7299 23.0808 16.8122V16.8137C23.0101 16.8525 22.9402 16.8937 22.8704 16.9348C22.858 16.9426 22.844 16.9503 22.8308 16.9581C22.7741 16.9922 22.7167 17.0264 22.66 17.0597C22.6445 17.0706 22.6266 17.0799 22.6103 17.09C22.5567 17.1226 22.5024 17.156 22.4496 17.1886C22.4325 17.1987 22.4162 17.2087 22.3984 17.2188C22.344 17.253 22.2881 17.2887 22.2322 17.3228C22.2183 17.3321 22.2058 17.3399 22.1919 17.3484C22.1282 17.3888 22.0661 17.4284 22.0017 17.4703C21.9978 17.4726 21.9924 17.4749 21.9877 17.4788C21.7773 17.6146 21.5677 17.7527 21.3612 17.8963C21.3511 17.9025 21.3395 17.911 21.3294 17.9165C21.2797 17.9506 21.2316 17.9824 21.1826 18.0166C21.1648 18.0352 21.1454 18.0445 21.1275 18.0585C21.0693 18.0988 21.0111 18.1407 20.9529 18.1811C20.9435 18.1889 20.9334 18.1966 20.9233 18.2028C20.8643 18.2471 20.8015 18.2905 20.7425 18.3348C20.737 18.3386 20.7308 18.3425 20.7254 18.3464C20.4552 18.5451 20.1882 18.7476 19.9258 18.9571C19.9219 18.961 19.918 18.9633 19.9126 18.9672C19.8536 19.0153 19.7922 19.0634 19.7317 19.1116C19.7263 19.1178 19.7185 19.1248 19.7115 19.1294C19.6525 19.1767 19.5943 19.2249 19.5376 19.273C19.5314 19.2776 19.5244 19.2831 19.5182 19.2869C19.4561 19.3389 19.394 19.3909 19.3319 19.4429C18.9918 19.7308 18.6596 20.0273 18.3351 20.3315C13.7423 24.6384 10.7263 30.6426 10.3234 37.4235C10.2566 38.5456 10.349 40.8077 10.3614 41.0669C10.2947 41.025 10.2279 40.9831 10.1611 40.9404C10.0951 40.8978 10.0284 40.8551 9.96239 40.8116C9.9065 40.7752 9.84983 40.7379 9.79393 40.7007C9.74658 40.6688 9.69922 40.637 9.65186 40.6044C9.60839 40.5749 9.56414 40.5454 9.52144 40.5152C9.46011 40.4733 9.39956 40.4314 9.339 40.3887C9.27845 40.346 9.21867 40.3033 9.1589 40.2606C9.1589 40.2606 9.15734 40.2606 9.15657 40.2591C9.14026 40.2475 9.12474 40.2358 9.10844 40.2242C9.06496 40.1924 9.02071 40.1605 8.97724 40.1287C8.91823 40.0845 8.85846 40.041 8.79946 39.996C8.75831 39.965 8.71794 39.9339 8.67757 39.9029C8.62323 39.8618 8.56966 39.8199 8.5161 39.778C5.55364 37.4413 3.84106 33.8351 3.99943 30.0598C4.00254 29.9922 4.00642 29.9232 4.0103 29.8549C4.07706 28.7281 4.30142 27.6486 4.66086 26.6375C4.22612 26.9921 3.70986 27.4919 3.22698 28.1577C2.49025 29.1766 2.03067 30.5681 1.92353 31.4046C1.92353 31.4046 1.92353 31.4041 1.92353 31.4031C1.92353 31.4031 1.92276 31.4015 1.92276 31.4007C1.82649 31.1268 1.73877 30.8567 1.66036 30.5913C1.6293 30.485 1.59903 30.3795 1.57108 30.2755C1.55245 30.2095 1.53459 30.1436 1.51829 30.0776C1.50276 30.0186 1.48801 29.9597 1.47326 29.9015C1.45153 29.8138 1.43057 29.7268 1.41116 29.6399C1.39097 29.553 1.37234 29.4661 1.35449 29.3807C1.34129 29.3194 1.32887 29.2589 1.31722 29.1984C1.29937 29.1076 1.28306 29.0176 1.26676 28.9275C1.25512 28.8623 1.24425 28.7979 1.23415 28.7335C1.2194 28.642 1.20543 28.5519 1.19301 28.4619C0.59058 24.2015 2.25425 21.369 3.21767 20.1476C3.2332 20.1274 3.24872 20.1088 3.26347 20.0901C3.27046 20.0808 3.27822 20.0715 3.28599 20.0622C3.29297 20.0537 3.29996 20.0443 3.30772 20.0358C3.33722 20.0001 3.36517 19.9667 3.39312 19.9341C3.41641 19.907 3.43892 19.8806 3.46066 19.8558C7.44865 15.3051 13.5242 12.7078 19.9972 13.4202C20.0515 13.4264 20.1035 13.4326 20.1571 13.4396C21.702 13.6219 23.1832 13.9843 24.5806 14.5035C24.5806 14.5035 24.5806 14.5038 24.5806 14.5043C25.173 14.7231 25.7498 14.9707 26.3111 15.2446L26.3064 15.2454Z"
                fill="#98D9F3" />
            <path
                d="M44.0183 22.3957C44.0183 22.4826 44.0183 22.5703 44.0168 22.6572C44.0168 22.7442 44.0144 22.8311 44.0121 22.918C44.0106 22.9964 44.0082 23.0747 44.0051 23.1531C44.0051 23.1617 44.0051 23.1702 44.0051 23.178C44.0044 23.1958 44.0044 23.2137 44.0036 23.2315C44.002 23.2579 44.0013 23.2843 43.9997 23.3099C43.9997 23.3246 43.9997 23.3394 43.9981 23.3549C43.9981 23.3743 43.9982 23.3945 43.9958 23.4146C43.9943 23.4434 43.9927 23.4728 43.9912 23.5023C43.9904 23.5318 43.9888 23.5605 43.9865 23.5892C43.9865 23.6001 43.9865 23.6102 43.985 23.6211C43.9826 23.6746 43.9795 23.7282 43.9756 23.7817C43.9756 23.798 43.9741 23.8143 43.9725 23.8306C43.9679 23.9105 43.9624 23.9905 43.9562 24.0704C43.9562 24.0836 43.9547 24.0968 43.9531 24.1092C43.9485 24.1674 43.9438 24.2264 43.9391 24.2846C43.9345 24.3397 43.9298 24.3948 43.9244 24.4491C43.9236 24.4623 43.9221 24.4755 43.9205 24.4887C43.9135 24.5663 43.9058 24.6439 43.8972 24.7215C43.8879 24.8084 43.8786 24.8953 43.8685 24.9822C43.8631 25.0272 43.8584 25.0722 43.8522 25.1172C43.8475 25.1568 43.8429 25.1956 43.8374 25.2344C43.8312 25.2849 43.8242 25.3353 43.8173 25.3858C43.8118 25.4277 43.8064 25.4696 43.8002 25.5115C43.7893 25.5898 43.7777 25.6675 43.7652 25.7458C43.7567 25.8017 43.7482 25.8576 43.7389 25.9135C43.7334 25.9484 43.728 25.9833 43.7218 26.0182C43.707 26.109 43.6915 26.199 43.6752 26.2891C43.6604 26.3736 43.6449 26.4582 43.6286 26.5428C43.6247 26.5614 43.6216 26.5793 43.6178 26.5971C43.6038 26.6693 43.5898 26.7415 43.575 26.8136C43.5626 26.8757 43.5494 26.9378 43.5362 26.9991L43.5269 27.0433C43.5238 27.0573 43.5207 27.0713 43.5176 27.0845C43.5036 27.152 43.4881 27.2195 43.4726 27.287C43.4594 27.3476 43.4454 27.4081 43.4307 27.4678C43.4268 27.4857 43.4229 27.5028 43.4182 27.5206C43.412 27.547 43.4058 27.5726 43.3996 27.5982C43.3903 27.6362 43.381 27.6743 43.3717 27.7115C43.3515 27.793 43.3313 27.8737 43.3103 27.9544C43.2878 28.0398 43.2653 28.1244 43.2428 28.2082C43.2063 28.3409 43.169 28.4736 43.1294 28.6047C43.1155 28.6559 43.0999 28.7064 43.0844 28.7568C43.0471 28.8818 43.0083 29.0059 42.968 29.1301C42.9408 29.2162 42.9128 29.3016 42.8841 29.387C42.8655 29.4428 42.8461 29.4987 42.8274 29.5538C42.7902 29.6624 42.7521 29.7711 42.7126 29.879C42.6877 29.9488 42.6621 30.0186 42.6357 30.0877C42.607 30.1653 42.5775 30.2421 42.548 30.319C42.5192 30.3927 42.4905 30.4656 42.4618 30.5386C42.4339 30.6084 42.4059 30.679 42.3764 30.7489C42.3485 30.8187 42.319 30.8878 42.2895 30.9576C42.2592 31.029 42.2289 31.1004 42.1978 31.171C42.1932 31.1819 42.1885 31.1928 42.1839 31.2036C42.0814 31.438 41.9743 31.6708 41.864 31.9005C41.8353 31.961 41.8066 32.0208 41.7771 32.0805C41.6932 32.2505 41.6071 32.4197 41.5193 32.5873C41.4875 32.6478 41.4557 32.7084 41.4231 32.7689C41.3959 32.8201 41.368 32.8721 41.34 32.9233C41.3058 32.9854 41.2717 33.0475 41.2368 33.1088L41.2321 33.1181C41.1894 33.1941 41.1467 33.2694 41.1032 33.3447C41.0714 33.4006 41.0396 33.4557 41.007 33.5108C41.0008 33.5209 40.9953 33.5309 40.9891 33.541C40.9487 33.6101 40.9076 33.6792 40.8657 33.7475C40.6801 34.0555 40.4868 34.3582 40.2865 34.6562C40.2415 34.7237 40.1957 34.7904 40.1491 34.8572C40.1173 34.9045 40.0847 34.9511 40.0513 34.9976C39.9861 35.0915 39.9193 35.1854 39.8518 35.2786C39.8099 35.3368 39.7679 35.3942 39.7252 35.4516C39.629 35.582 39.5312 35.7116 39.4318 35.8396C39.3821 35.904 39.3324 35.9677 39.282 36.0313C39.1818 36.1586 39.0793 36.2843 38.9761 36.4092C38.9249 36.4713 38.8728 36.5334 38.8201 36.5955C38.768 36.6568 38.7152 36.7189 38.6625 36.7802C38.6097 36.8415 38.5561 36.902 38.5025 36.9625C38.5025 36.9625 38.5018 36.9625 38.501 36.9641C38.0577 37.2574 37.6098 37.5244 37.161 37.7673C28.1945 42.6244 18.4337 37.4871 17.0045 30.0388C16.975 29.8844 16.9478 29.73 16.9253 29.574C16.4704 26.3938 17.2506 23.604 18.9158 21.421C19.3824 20.8095 19.9173 20.2461 20.515 19.7347C20.498 19.7378 20.4817 19.7417 20.4654 19.7448C20.4824 19.7409 20.4987 19.7378 20.5158 19.7339C21.487 19.5306 22.5917 19.3638 23.7547 19.2419C23.729 19.2683 23.7042 19.2939 23.6794 19.3203C23.528 19.4786 23.3875 19.6408 23.2578 19.8061C23.2361 19.8333 23.2151 19.8612 23.1941 19.8891C23.1623 19.9303 23.1313 19.9722 23.101 20.0141C23.0397 20.0987 22.9807 20.1833 22.9255 20.2694C22.8976 20.3121 22.8704 20.3548 22.844 20.3982C22.8207 20.4355 22.7974 20.4735 22.7757 20.5115C22.7198 20.6054 22.6662 20.7009 22.6173 20.7971C22.5669 20.8933 22.5203 20.9903 22.476 21.0873C22.4411 21.1649 22.4077 21.2433 22.3759 21.3217C22.3037 21.501 22.2408 21.6818 22.1873 21.8634C22.1764 21.9006 22.1655 21.9371 22.1554 21.9743C22.1345 22.0481 22.1158 22.1226 22.0988 22.1971C22.0809 22.2708 22.0654 22.3453 22.0498 22.4198C22.0351 22.4943 22.0219 22.5688 22.0103 22.644C21.987 22.793 21.9683 22.942 21.9559 23.0918C21.9489 23.1671 21.9435 23.2416 21.9404 23.3161C21.907 23.968 21.9722 24.6167 22.1174 25.2422C22.15 25.3811 22.1857 25.5185 22.2253 25.6535C22.2525 25.7443 22.2804 25.8343 22.3099 25.9235C22.3394 26.0128 22.3712 26.1012 22.4038 26.1882C22.4209 26.2324 22.4372 26.2766 22.4551 26.3193C22.4683 26.355 22.483 26.3892 22.497 26.4241C22.5397 26.5273 22.584 26.6297 22.6313 26.7306C22.6934 26.8649 22.7602 26.9968 22.8293 27.1264C22.8813 27.2234 22.9356 27.3188 22.9915 27.4127C23.0474 27.5074 23.1049 27.599 23.1639 27.6906C23.2229 27.7806 23.2834 27.869 23.3463 27.956C23.368 27.9854 23.3882 28.0142 23.4092 28.0429C23.4511 28.0995 23.4938 28.1554 23.5381 28.2113C23.625 28.3222 23.7151 28.4293 23.8074 28.5325C23.8532 28.5845 23.8998 28.6358 23.9472 28.6854C23.9953 28.7343 24.0427 28.7832 24.0908 28.8313C24.163 28.9027 24.236 28.9726 24.3113 29.0393C24.3485 29.0719 24.3866 29.1045 24.4246 29.1371C24.4953 29.1976 24.5675 29.2558 24.6397 29.3117C24.7608 29.4056 24.8834 29.4917 25.0084 29.5716C25.5899 29.9426 26.1737 30.239 26.759 30.468C26.8413 30.5006 26.9252 30.5316 27.0082 30.5611C27.162 30.617 27.3157 30.6682 27.4694 30.7132C27.5198 30.7279 27.5711 30.7434 27.6223 30.7574C27.6743 30.7714 27.7256 30.7854 27.7776 30.7993C27.8793 30.8257 27.981 30.8505 28.0827 30.873H28.0842C28.1859 30.8956 28.2876 30.9165 28.3901 30.9351C28.543 30.9623 28.6968 30.9863 28.8489 31.0057C28.9506 31.0189 29.0515 31.0298 29.1532 31.0391C29.9156 31.1074 30.6709 31.0709 31.4123 30.9421C31.4845 30.9289 31.5567 30.915 31.6289 30.901C31.7019 30.8862 31.7733 30.8707 31.8455 30.8552C31.8688 30.8498 31.8929 30.8436 31.9177 30.8381C32.0668 30.804 32.2143 30.7652 32.3618 30.7233C32.4581 30.6961 32.5528 30.6674 32.6483 30.6371C32.7437 30.6061 32.8377 30.5743 32.9324 30.5417C32.9642 30.53 32.9953 30.5192 33.0263 30.5075C33.1265 30.4703 33.2266 30.4323 33.326 30.3935C33.5263 30.3135 33.7242 30.2274 33.9199 30.1358C33.9929 30.1009 34.0658 30.0652 34.1388 30.0295C34.2118 29.9938 34.284 29.9566 34.3569 29.9185C34.4532 29.8673 34.5487 29.8153 34.6442 29.7626C34.7878 29.6818 34.9291 29.5988 35.0704 29.5127C35.1177 29.484 35.1643 29.4545 35.2109 29.4242C35.3048 29.366 35.3972 29.3055 35.4896 29.2434C35.6744 29.12 35.8568 28.9904 36.0369 28.8561C36.1712 28.756 36.3048 28.6536 36.4367 28.5473C36.6137 28.4061 36.7876 28.2594 36.9584 28.1088C37.0857 27.9955 37.2131 27.8799 37.338 27.7619C38.2634 26.8889 39.1034 25.8809 39.8277 24.7905C39.8875 24.7028 39.9457 24.6136 40.0024 24.5236C40.0987 24.3738 40.1926 24.2233 40.2834 24.0704C40.344 23.9695 40.4045 23.8678 40.462 23.7662C40.4923 23.7142 40.5218 23.663 40.5505 23.611C40.5792 23.5598 40.6079 23.5078 40.6359 23.4565C40.722 23.3006 40.8051 23.1446 40.8851 22.9871C40.9658 22.8295 41.0442 22.6712 41.1203 22.5106C41.1964 22.3515 41.2701 22.1916 41.34 22.0302C41.3641 21.9767 41.3881 21.9223 41.4106 21.868C41.4805 21.7074 41.5473 21.5444 41.6109 21.3822C41.6335 21.3271 41.6544 21.272 41.6754 21.2177C41.7383 21.054 41.798 20.8902 41.8547 20.7257C41.8741 20.6706 41.8935 20.6163 41.9114 20.5612C41.9486 20.451 41.9844 20.3408 42.0185 20.2306H42.0193C42.0542 20.1196 42.0876 20.0094 42.1194 19.8992C42.1194 19.8992 42.1194 19.8992 42.1194 19.8977C42.1513 19.7883 42.1823 19.6773 42.211 19.5671C42.2273 19.5112 42.2413 19.4553 42.2561 19.3995C42.2988 19.2342 42.3384 19.0673 42.3756 18.9013C42.3756 18.9005 42.3764 18.9005 42.3764 18.9005C42.4005 18.7895 42.4238 18.6785 42.4455 18.5683C42.4804 18.393 42.5123 18.2176 42.541 18.043C42.5658 17.8924 42.5876 17.7427 42.6062 17.5929C42.6163 17.5184 42.6256 17.4431 42.6334 17.3686C42.6675 17.066 42.6916 16.7641 42.7048 16.4638C42.7157 16.2216 42.7188 15.9811 42.7149 15.7428C42.7149 15.6776 42.7126 15.6132 42.7102 15.5488C42.7102 15.5061 42.7079 15.4642 42.7056 15.4216C42.7001 15.3005 42.673 14.9552 42.659 14.7728C42.6605 14.7759 42.6621 14.779 42.6629 14.7829C42.6667 14.7914 42.6699 14.8 42.673 14.8085C42.7684 15.0677 42.8585 15.3284 42.9439 15.5923C42.9695 15.6707 42.9944 15.749 43.0192 15.8274C43.0805 16.0253 43.1395 16.224 43.1962 16.4242C43.2156 16.4933 43.2342 16.5615 43.2529 16.6306C43.27 16.6935 43.287 16.7563 43.3033 16.8192L43.3453 16.9821C43.3507 17.0047 43.3561 17.0272 43.3623 17.0504C43.3678 17.0753 43.374 17.1001 43.3802 17.1249C43.3864 17.149 43.3926 17.1738 43.398 17.1979C43.412 17.2545 43.4252 17.3112 43.4384 17.3686C43.447 17.4035 43.4547 17.4385 43.4625 17.4734C43.4695 17.5029 43.4765 17.5324 43.4827 17.5618C43.4928 17.6045 43.5021 17.6472 43.5114 17.6899C43.5145 17.7031 43.5176 17.7163 43.5199 17.7302C43.5362 17.8063 43.5525 17.8823 43.5681 17.9584C43.5805 18.0174 43.5921 18.0763 43.6038 18.1361C43.61 18.1671 43.6162 18.1982 43.6216 18.23C43.6294 18.2704 43.6372 18.3115 43.6449 18.3526C43.6542 18.4007 43.6628 18.4488 43.6713 18.4977C43.6876 18.5877 43.7031 18.6778 43.7179 18.7686C43.7435 18.9199 43.7668 19.072 43.7885 19.2249C43.7963 19.2776 43.8041 19.3304 43.8111 19.384C43.8204 19.4522 43.8297 19.5205 43.8382 19.5896C43.8483 19.668 43.8576 19.7464 43.8669 19.8247C43.8801 19.9357 43.8918 20.0475 43.9034 20.1592C43.9135 20.2616 43.9236 20.3649 43.9322 20.4681C43.9391 20.5472 43.9454 20.6272 43.9516 20.7071C43.9531 20.7218 43.9539 20.7366 43.9547 20.7505C43.9562 20.763 43.957 20.7761 43.9578 20.7886C43.9624 20.8522 43.9663 20.9151 43.9702 20.9787C43.9756 21.0532 43.9795 21.1285 43.9834 21.203C43.9857 21.2464 43.9881 21.2891 43.9896 21.3326C43.9935 21.4094 43.9974 21.487 43.9997 21.5638C44.002 21.629 44.0044 21.6942 44.0059 21.7586C44.0082 21.8277 44.0098 21.896 44.0113 21.965C44.0113 22.0232 44.0129 22.0822 44.0137 22.1404C44.0145 22.2234 44.0152 22.3073 44.0152 22.3911L44.0183 22.3957Z"
                fill="#3D8FCD" />
        </g>
    </g>
    <defs>
        <radialGradient id="paint0_radial_148_3" cx="0" cy="0" r="1" gradientUnits="userSpaceOnUse"
            gradientTransform="translate(22.0063 22.3957) scale(22.0058 21.9973)">
            <stop stop-color="#1F2467" />
            <stop offset="1" stop-color="#3740B9" />
        </radialGradient>
        <clipPath id="clip0_148_3">
            <rect width="226" height="44" fill="white" transform="translate(0 0.398438)" />
        </clipPath>
    </defs>
</svg>
    